<svg width="742" height="547" viewBox="0 0 742 547" fill="none" xmlns="http://www.w3.org/2000/svg">
<path d="M139.026 400.454L135.709 397.763C134.347 396.657 132.244 394.681 131.771 394.662C129.736 394.583 100.061 374.497 95.4051 369.938C94.8149 369.361 91.5895 366.805 89.4316 365.155C78.3711 356.698 56.9857 324.065 46.511 309.231C45.411 307.674 36.815 307.979 35.6495 306.535C28.9151 298.195 14.8131 274.284 7.3501 258.644C0.0696716 243.386 1.62332 243.262 2.31879 239.785C2.65498 238.104 6.75778 231.217 13.2272 222.39C19.6966 213.564 25.8897 205.32 26.9897 203.773C44.3404 179.368 43.0992 178.286 48.1881 178.311C52.8024 178.333 48.8552 176.161 79.486 200.602C89.3235 208.451 100.848 217.39 105.096 220.764C113.369 227.334 114.248 230.279 112.552 234.715C111.141 238.407 110.557 238.561 93.3724 247.362C84.5724 251.868 77.2772 256.612 76.8624 257.009C76.8624 257.009 88.9552 267.576 105.375 275.79L139.526 292.874L145.542 281.445C156.449 260.725 168.812 243.385 186.292 234.753C190.359 232.745 198.729 229.518 200.989 229.502C204.618 229.476 212.305 226.192 213.466 218.706C215.28 207.016 220.131 185.807 223.843 182.726C224.614 182.086 228.176 179.951 228.176 179.475C228.176 177.321 232.987 169.293 239.26 164.993C256.219 153.368 281.032 147.65 304.052 152.865C331.889 159.172 350.114 176.809 358.233 208.67C378.844 337.711 137.641 405.833 139.026 400.454ZM196.838 378.129C208.772 373.283 221.989 363.766 236.114 349.849C243.226 342.842 250.348 335.359 251.941 333.22C253.534 331.081 255.305 328.831 255.875 328.22C258.008 325.936 261.338 319.813 261.338 318.175C261.338 317.242 258.787 312.481 258.219 311.419C257.294 309.69 257.452 313.025 250.735 321.03C241.232 332.356 224.372 345.466 215.138 351.85C200.124 362.23 191.205 365.789 178.838 365.811C169.283 365.828 164.425 362.917 155.934 356.492C150.885 352.672 142.945 345.013 142.945 343.466C142.945 343.105 142.767 340.419 141.594 338.771C140.42 337.123 140.132 333.097 137.086 330.681L134.851 319.483L131.922 332.609C127.538 352.255 147.374 371.795 165.068 379.246C170.104 381.367 172.046 381.631 180.338 381.324C187.923 381.043 191.249 380.399 196.838 378.129ZM135.351 313.359L133.706 305.545L119.141 297.519C112.092 293.634 96.6006 286.208 84.9395 280.28C73.2784 274.352 60.8106 267.352 56.9146 265.363C50.3357 262.003 48.9801 261.873 48.0844 263.547C46.4855 266.535 46.2075 273.349 48.5878 276.071C50.2767 278.002 131.553 318.769 134.851 319.483C135.17 319.552 138.789 313.359 135.351 313.359ZM153.626 311.954C155.246 306.854 161.58 293.12 164.623 288.109C170.25 278.844 181.539 266.83 188.338 262.872C194.01 259.569 203.765 256.433 207.276 256.784C210.216 257.077 210.766 257.677 212.892 262.92C217.921 275.317 229.406 287.55 240.838 292.683C251.283 297.374 271.252 299.007 281.406 296.001C295.81 291.737 313.338 276.249 313.338 267.787C313.338 261.297 311.344 260.112 306.24 265.838C299.865 272.991 292.304 277.017 283.239 280.215C273.179 283.764 258.702 282.344 248.099 278.985C239.498 276.26 233.759 272.284 228.954 267.553C223.449 262.133 217.956 250.563 215.888 244.687C213.756 238.631 207.943 240.726 199.414 243.661C190.349 246.78 185.615 250.3 178.279 257.22C167.61 267.284 160.627 281.412 154.575 298.609C151.454 307.476 149.541 317.619 150.994 317.595C151.458 317.585 152.642 315.049 153.626 311.954ZM41.1418 221.359C45.1085 215.997 48.6879 211.61 49.096 211.612C49.504 211.613 56.3079 216.788 64.2159 223.112C72.1238 229.435 80.9688 236.956 80.9688 236.956C81.1278 236.956 84.1812 237.281 85.777 234.907L94.4678 232.076L87.6099 225.212C85.989 223.875 84.7869 222.731 83.9825 222.032C83.1782 221.334 79.6602 219.714 77.4396 218.113C75.219 216.513 73.9594 213.624 73.6844 213.288C73.4094 212.952 70.0344 211.014 66.1844 208.027C62.3344 205.04 57.7986 201.795 56.4236 200.497C51.2427 195.608 45.0459 194.116 30.7184 219.066L17.2922 242.446L20.6286 249.442L27.2791 240.276C30.9368 235.234 37.175 226.722 41.1418 221.359ZM342 233.359C341.723 232.672 341.496 233.234 341.496 234.609C341.496 235.984 344.265 224.052 344.543 223.365C344.82 222.677 342.278 234.047 342 233.359ZM343.838 214.391C338.433 188.506 319.946 171.434 298.302 167.176C289.53 165.45 267.37 167.034 259.956 169.574C242.928 175.407 230.187 193.062 226.561 213.856C224.885 223.465 226.05 225.23 226.921 224.359C227.242 224.038 227.47 223.515 227.429 223.195C227.201 221.454 232.721 208.914 235.915 203.913C240.764 196.323 242.732 194.248 249.338 189.764C256.745 184.735 259.023 183.849 269.027 182.104C305.329 175.774 333.753 187.21 341.571 219.596C344.112 230.122 346.326 226.302 343.838 214.391ZM382.567 228.69C383.46 218.463 385.203 208.27 388.561 198.546C395.531 178.361 402.55 167.751 419.886 159.501C432.153 153.662 440.596 151.891 456.112 151.9C484.191 152.544 505.033 160.527 518.918 183.35C524.266 192.352 528.63 209.933 531.389 218.003L533.599 224.467L540.779 228.042C561.349 238.286 581.578 250.199 594.632 277.582C597.15 282.862 601.338 287.053 601.338 287.605C601.338 288.157 601.001 290.074 601.23 290.074C601.458 290.074 610.585 287.5 618.744 283.306C626.904 279.113 640.045 271.486 648.157 267.407C656.27 263.327 665.105 257.742 665.105 257.296C665.105 256.851 659.974 252.661 656.262 250.926C652.549 249.191 647.1 245.967 645.175 244.912C643.25 243.857 642.836 243.823 641.186 243.047C629.779 237.675 629.287 236.428 629.334 231.121C629.371 226.89 626.856 227.98 632.954 223.294C635.429 221.391 636.632 218.746 636.907 218.438C637.182 218.13 640.18 216.512 642.93 214.331C645.68 212.15 648.26 210.433 648.535 210.132C648.81 209.831 652.169 207.26 655.744 204.546C659.319 201.832 667.771 194.436 674.653 188.877C681.536 183.318 686.679 178.979 687.873 178.34C690.579 176.892 693.12 176.329 696.122 177.718C698.156 178.659 705.521 188.074 712.101 197.845C713.371 199.73 720.772 209.822 728.165 220.015C737.83 233.342 740.559 239.022 740.559 241.042C740.559 250.085 717.109 290.115 699.106 313.887C673.036 348.312 646.375 370.166 612.027 391.093C579.272 401.255 397.416 383.904 382.567 228.69ZM574.713 378.882C581.921 375.672 582.039 375.589 588.693 369.066C595.757 362.141 597.888 359.44 600.668 353.887C604.289 346.657 606.257 339.809 606.783 332.609L606.736 319.852L601.439 332.29C595.925 345.238 587.644 356.236 576.638 361.107C559.379 368.744 543.396 366.392 520.552 347.891C511.551 340.601 491.514 323.362 491.514 321.827C493.691 319.95 492.038 321.827 491.514 321.827C490.991 321.827 489.43 318.759 487.727 316.284C484.275 311.266 478.68 312.396 477.766 316.037C476.848 319.695 477.923 321.953 484.596 330.391C497.689 346.946 517.895 365.06 532.751 373.559C547.522 382.011 563.216 384.001 574.713 378.882ZM591.03 304.598C585.605 284.784 570.358 261.377 556.627 250.304C550.265 245.174 528.929 239.216 527.052 241.398C526.654 241.862 525.378 246.165 524.218 249.048C517.001 266.983 503.85 276.013 484.31 279.522C463.516 283.255 447.531 278.604 435.343 263.438C432.844 260.328 429.74 255.48 429.093 256.5C424.909 263.103 433.915 284.907 448.868 292.405C457.145 296.555 463.973 297.867 474.225 297.279C479.512 296.976 486.198 296.279 489.084 295.729C503.715 292.945 519.404 278.872 525.982 262.633C527.951 257.773 528.594 257.071 531.324 256.792C535.427 256.374 545.72 259.875 551.33 263.597C565.457 272.971 579.082 292.525 585.461 312.58C587.717 319.67 592.025 320.904 592.32 317.372C592.491 315.325 592.197 308.86 591.03 304.598ZM661.606 292.315C675.778 285.157 688.491 278.183 689.856 276.818C692.495 274.18 691.748 264.072 689.724 262.048C688.991 261.315 683.896 264.934 672.234 271.026C663.049 275.824 643.969 283.637 630.784 291.392L606.556 305.642L605.773 313.002C605.467 315.886 607.611 318.549 607.945 318.883C608.279 319.217 614.692 316.304 622.195 312.41C629.699 308.516 647.433 299.474 661.606 292.315ZM723.11 246.759C724.126 243.843 725.434 240.762 721.257 234.649C718.773 231.014 716.404 227.259 715.038 225.669C713.671 224.078 711.248 222.77 711.248 222.443C711.247 222.116 710.495 218.825 709.258 217.361C708.022 215.897 703.686 211.546 700.402 206.428L692.752 194.507L680.645 201.217C655.036 215.411 648.738 226.943 649.159 227.626C649.42 228.048 652.212 233.897 654.406 234.886C659.022 236.968 658.763 236.253 674.963 223.08C680.394 218.664 686.163 214.209 687.782 213.18C690.712 211.318 690.734 211.32 692.273 213.638C693.124 214.92 695.85 218.7 698.331 222.039C700.812 225.377 706.146 232.722 710.184 238.359C714.223 243.997 720.758 251.216 721.203 251.216C721.647 251.216 722.505 248.494 723.11 246.759ZM401.095 219.359C403.957 209.742 411.028 197.924 416.7 193.276C427.953 184.055 442.105 179.963 459.338 180.948C465.113 181.278 472.147 182.182 474.969 182.957C491.149 187.399 503.105 199.202 509.062 216.609L514.676 224.152L514.702 219.62C514.716 217.127 513.525 211.324 512.693 208.316C511.86 205.309 511.777 200.801 511.551 199.893C510.381 195.183 500.638 182.062 495.829 177.848C494.82 176.964 490.674 173.83 489.482 172.794C486.009 169.775 475.562 166.834 468.774 165.733C460.734 164.428 445.864 165.974 438.921 167.261C426.811 169.507 412.817 179.062 405.962 189.805C400.476 198.402 400.045 208.194 397.42 223.62C396.42 229.492 398.894 226.755 401.095 219.359Z" fill="#FFB380"/>
<path d="M263.415 545.132C244.548 540.706 227.337 528.825 215.536 512.08L210.089 504.35L201.807 503.785C185.884 502.7 170.581 495.504 158.075 483.222C149.029 474.339 145.285 469.052 140.022 457.737C132.614 441.807 131.572 426.638 136.667 408.889C137.563 405.767 138.045 402.557 137.737 401.756C137.429 400.954 134.556 398.817 131.351 397.007C103.841 381.467 75.8351 357.596 51.0007 328.519C41.6157 317.531 25.7881 294.538 17.1548 279.352C8.60198 264.306 0.0249023 245.445 0.0249023 241.683C0.0249023 238.843 3.37238 233.644 20.1561 210.42C31.2283 195.099 41.4376 181.326 42.8433 179.814C45.8407 176.589 50.2908 176.174 54.0524 178.77C55.4122 179.708 66.4249 188.364 78.5249 198.005C90.6249 207.646 102.492 217.042 104.895 218.884C115.855 227.286 117.503 229.776 115.733 235.266C114.743 238.338 112.614 239.68 92.2749 250.041C84.4374 254.033 78.0291 257.809 78.0342 258.432C78.0467 259.954 138.609 290.439 139.961 289.603C140.546 289.242 141.025 288.488 141.025 287.929C141.025 285.791 151.253 266.496 155.735 260.18C168.503 242.183 181.901 232.318 199.786 227.743L208.393 225.541L209.708 217.552C210.431 213.159 212.409 205.514 214.102 200.564C225.624 166.877 248.712 150.801 285.525 150.833C300.233 150.846 309.763 152.779 320.525 157.932C342.658 168.531 355.261 187.469 360.715 218.323C362.393 227.817 362.525 237.093 362.525 345.564C362.525 440.7 362.267 463.961 361.146 470.04C354.39 506.682 329.151 536.498 298.073 544.551C288.082 547.14 273.05 547.392 263.415 545.132ZM291.226 528.974C308.865 525.345 326.937 510.337 336.272 491.564C342.445 479.151 345.916 464.085 344.13 457.458C342.409 451.073 336.862 442.888 331.525 438.857C322.696 432.191 306.503 427.07 294.21 427.058C286.914 427.051 281.32 425.483 280.037 423.086C278.075 419.42 278.824 414.367 281.66 412.136C287.787 407.317 315.893 411.344 331.423 419.267C335.866 421.534 341.169 425.074 342.159 426.436C344.775 430.03 345.05 424.707 345.292 365.798C345.43 332.38 345.292 304.337 344.995 303.48C344.591 302.327 343.124 303.438 339.365 307.742C320.088 329.818 293.201 352.697 269.861 366.885C259.69 373.069 237.796 384.123 225.525 389.27C201.046 399.539 167.461 409.44 159.044 408.868C154.631 408.568 154.543 408.623 153.155 412.564C151.195 418.129 150.555 433.483 151.994 440.415C154.939 454.599 167.346 471.758 180.146 479.346C187.474 483.691 210.967 487.79 212.38 486.377C212.953 485.804 224.806 475.86 231.591 469.774C235.704 466.085 241.303 463.283 241.303 463.283C241.303 463.283 244.525 460.844 252.504 460.844C260.008 460.845 271.132 466.39 279.866 470.546C280.421 470.81 280.966 471.068 281.5 471.319C293.723 477.065 292.368 488.53 286.738 490.338C281.267 492.094 274.326 485.967 268.673 482.423C263.512 479.186 257.101 476.956 256.391 476.763C242.973 473.102 225.128 501.997 239.635 513.871C246.867 519.79 258.156 526.658 266.208 528.607C272.9 530.227 284.321 530.394 291.226 528.974ZM179.897 386.101C204.805 378.904 232.698 367.272 253.467 355.419C284.605 337.648 315.963 309.835 339.856 278.796L344.186 273.17L344.356 247.367C344.515 223.118 344.383 221.022 342.155 212.564C336.12 189.648 323.416 175.112 305.045 170.103C295.963 167.627 278.043 167.353 267.755 169.533C256.329 171.954 245.131 179.326 238.507 188.785C233.285 196.243 228.96 208.484 227.62 219.601C226.931 225.315 229.59 237.133 233.506 245.76C241.072 262.427 262.142 270.818 280.382 264.428C285.86 262.509 293.486 256.641 297.172 251.508C301.155 245.962 305.362 244.342 310.359 246.43C314.403 248.12 316.025 250.609 316.025 255.128C316.025 258.319 313.179 261.96 303.025 271.764C297.466 277.13 284.812 282.833 275.843 284.014C262.565 285.761 248.558 283.083 237.7 276.719C228.514 271.336 219.106 259.805 214.931 248.814C212.466 242.323 211.318 241.906 203.025 244.485C190.731 248.309 181.632 254.773 172.772 265.978C162.944 278.406 153.138 299.988 151.474 312.851C150.055 323.822 161.296 342.914 172.709 348.915C175.787 350.534 184.969 350.342 190.149 348.551C204.832 343.475 223.381 328.163 242.057 305.705L249.423 296.846L253.597 297.419C260.299 298.337 262.915 299.961 263.603 303.63C264.265 307.159 263.427 309.499 262.007 309.499C261.522 309.499 257.84 314.998 253.825 319.807C220.217 360.059 188.376 376.17 164.557 364.974C156.152 361.023 144.826 349.454 139.873 339.761C136.447 333.055 133.763 320.215 134.469 313.909C135.25 306.939 136.218 307.72 111.317 295.232C78.6648 278.858 53.5809 265.867 50.7749 263.877C48.5949 262.332 48.0249 261.136 48.0249 258.106C48.0249 255.899 48.764 253.437 49.7749 252.277C51.706 250.06 78.2682 236.064 80.5439 236.064C82.8408 236.064 91.0249 231.768 91.0249 230.563C91.0249 229.957 85.3476 224.984 78.4087 219.512C71.4698 214.041 62.5823 206.988 58.6587 203.84C51.9487 198.457 49.0249 196.959 49.0249 198.904C49.0249 199.366 42.8374 208.262 35.2749 218.672C16.4261 244.618 17.7794 242.232 19.5319 246.426C20.3364 248.352 21.4146 250.187 21.928 250.504C22.4414 250.821 25.2183 255.464 28.0988 260.822C57.2024 314.955 97.4822 357.109 146.002 384.211C158.975 391.458 160.97 391.569 179.897 386.101Z" fill="#FF7F2A"/>
<path d="M478.578 544.057C497.444 539.631 514.655 527.75 526.456 511.006L531.904 503.275L540.185 502.711C556.108 501.625 571.411 494.43 583.917 482.148C592.963 473.264 596.708 467.978 601.97 456.662C609.379 440.732 610.421 425.563 605.325 407.814C604.429 404.693 603.948 401.483 604.255 400.681C604.563 399.879 607.437 397.742 610.641 395.932C638.151 380.393 666.157 356.522 690.992 327.445C700.376 316.456 716.204 293.464 724.838 278.277C733.39 263.232 741.967 244.371 741.967 240.609C741.967 237.768 738.62 232.57 721.836 209.346C710.764 194.025 700.555 180.252 699.149 178.739C696.152 175.514 691.701 175.1 687.94 177.695C686.58 178.634 675.567 187.29 663.467 196.931C651.367 206.571 639.501 215.967 637.097 217.81C626.137 226.211 624.489 228.701 626.259 234.192C627.249 237.264 629.379 238.605 649.717 248.966C657.555 252.959 663.963 256.735 663.958 257.357C663.946 258.88 603.383 289.364 602.031 288.528C601.446 288.167 600.967 287.414 600.967 286.854C600.967 284.716 590.739 265.422 586.258 259.105C573.489 241.108 560.091 231.243 542.206 226.668L533.599 224.466L532.284 216.478C531.561 212.084 529.584 204.439 527.891 199.489C516.368 165.802 493.28 149.726 456.467 149.758C441.76 149.771 432.229 151.704 421.467 156.858C399.334 167.456 386.731 186.394 381.277 217.249C379.599 226.743 379.467 236.019 379.467 344.489C379.467 439.625 379.725 462.886 380.846 468.966C387.602 505.608 412.841 535.424 443.919 543.477C453.91 546.066 468.942 546.317 478.578 544.057ZM450.766 527.899C433.127 524.271 415.055 509.262 405.72 490.489C399.547 478.077 396.076 463.01 397.862 456.384C399.583 449.998 405.13 441.813 410.467 437.783C419.296 431.116 435.49 425.996 447.783 425.984C455.078 425.977 460.673 424.408 461.956 422.011C463.917 418.345 463.168 413.292 460.333 411.062C454.205 406.242 426.1 410.269 410.569 418.192C406.126 420.459 400.824 424 399.833 425.361C397.218 428.956 396.943 423.632 396.7 364.724C396.563 331.306 396.7 303.262 396.997 302.405C397.401 301.253 398.868 302.363 402.627 306.668C421.904 328.744 448.791 351.622 472.131 365.811C482.302 371.994 504.196 383.048 516.467 388.196C540.946 398.464 574.531 408.365 582.948 407.793C587.361 407.494 587.449 407.549 588.837 411.489C590.797 417.054 591.437 432.408 589.998 439.341C587.054 453.525 574.646 470.683 561.847 478.271C554.518 482.616 531.025 486.716 529.612 485.302C529.039 484.73 517.187 474.785 510.401 468.7C506.288 465.011 500.69 462.208 500.69 462.208C500.69 462.208 497.468 459.769 489.488 459.77C481.984 459.77 470.86 465.316 462.126 469.472C461.571 469.736 461.026 469.994 460.492 470.245C448.269 475.99 449.625 487.455 455.254 489.263C460.725 491.02 467.666 484.893 473.319 481.348C478.48 478.111 484.891 475.882 485.601 475.688C499.019 472.027 516.864 500.923 502.357 512.796C495.125 518.715 483.837 525.584 475.785 527.532C469.092 529.152 457.671 529.319 450.766 527.899ZM562.095 385.026C537.187 377.829 509.295 366.197 488.526 354.344C457.387 336.574 426.029 308.761 402.136 277.721L397.806 272.095L397.636 246.292C397.477 222.043 397.61 219.947 399.838 211.489C405.873 188.574 418.577 174.038 436.947 169.029C446.029 166.552 463.949 166.278 474.237 168.458C485.663 170.88 496.862 178.251 503.485 187.711C508.707 195.168 513.032 207.41 514.372 218.527C515.061 224.24 512.402 236.058 508.486 244.686C500.92 261.352 479.85 269.743 461.61 263.354C456.132 261.435 448.506 255.566 444.82 250.434C440.837 244.888 436.63 243.267 431.634 245.355C427.589 247.045 425.967 249.535 425.967 254.053C425.967 257.244 428.813 260.885 438.967 270.689C444.526 276.056 457.181 281.759 466.149 282.939C479.427 284.687 493.434 282.008 504.292 275.645C513.478 270.261 522.886 258.73 527.061 247.739C529.526 241.248 530.674 240.831 538.967 243.41C551.261 247.234 560.36 253.698 569.221 264.904C579.048 277.332 588.854 298.913 590.518 311.776C591.937 322.748 580.696 341.839 569.283 347.841C566.205 349.459 557.024 349.267 551.843 347.476C537.16 342.4 518.611 327.089 499.935 304.631L492.569 295.772L488.396 296.344C481.694 297.263 479.077 298.887 478.389 302.555C477.727 306.084 478.565 309.989 479.985 309.989C480.47 309.989 484.153 313.924 488.167 318.732C521.775 358.984 553.617 375.095 577.435 363.899C585.84 359.948 597.167 348.379 602.119 338.686C605.545 331.981 608.229 319.141 607.523 312.835C606.742 305.864 605.774 306.645 630.675 294.158C663.327 277.783 688.411 264.792 691.217 262.803C693.397 261.257 693.967 260.061 693.967 257.032C693.967 254.825 693.228 252.362 692.217 251.202C690.286 248.985 663.724 234.989 661.448 234.989C659.151 234.989 650.967 230.694 650.967 229.488C650.967 228.882 656.645 223.909 663.584 218.438C670.523 212.966 679.41 205.914 683.334 202.766C690.044 197.382 692.967 195.884 692.967 197.83C692.967 198.292 699.155 207.187 706.717 217.597C725.566 243.543 724.213 241.157 722.46 245.352C721.656 247.277 720.578 249.112 720.064 249.429C719.551 249.747 716.774 254.39 713.893 259.748C684.79 313.881 644.51 356.034 595.99 383.137C583.017 390.384 581.023 390.495 562.095 385.026Z" fill="#FF7F2A"/>
<path d="M182.177 104.551C184.936 108.096 186.594 111.921 187.149 116.026C187.705 120.131 187.461 124.323 186.418 128.6C188.2 129.193 190.167 129.972 192.32 130.936C194.473 131.9 196.604 133.047 198.711 134.376C200.83 135.614 202.815 136.998 204.666 138.528C206.528 139.966 208.059 141.455 209.258 142.997C210.538 144.641 211.267 146.425 211.445 148.349C211.714 150.284 210.898 151.992 208.997 153.472C207.405 154.711 205.418 155.021 203.036 154.399C200.706 153.738 198.259 152.714 195.695 151.327C193.142 149.85 190.62 148.306 188.13 146.697C185.691 145.048 183.618 143.815 181.91 143C181.225 144.028 180.606 145.087 180.053 146.178C179.46 147.217 178.84 148.277 178.196 149.356C179.024 150.527 180.141 152.173 181.547 154.297C182.964 156.329 184.201 158.501 185.258 160.813C186.367 163.086 187.044 165.281 187.291 167.399C187.537 169.517 186.89 171.176 185.349 172.376C183.653 173.696 181.803 174.022 179.799 173.355C177.794 172.688 175.847 171.564 173.956 169.983C172.117 168.362 170.412 166.595 168.841 164.683C167.23 162.72 165.984 161.173 165.104 160.042C163.225 157.628 161.436 155.225 159.74 152.833C158.003 150.39 156.194 147.961 154.315 145.546C152.595 143.337 150.824 141.168 149.002 139.039C147.231 136.87 145.465 134.656 143.706 132.395C143.306 131.881 142.806 131.239 142.206 130.469C141.566 129.647 140.952 128.805 140.364 127.943C139.786 126.989 139.249 126.087 138.752 125.237C138.255 124.386 137.955 123.63 137.852 122.967C137.526 121.489 137.882 119.561 138.92 117.186C140.01 114.77 141.353 112.363 142.951 109.964C144.56 107.473 146.232 105.223 147.967 103.212C149.714 101.11 151.101 99.6593 152.128 98.8595C154.748 96.8199 157.44 95.5083 160.203 94.9247C162.967 94.3411 165.676 94.3771 168.332 95.0326C170.947 95.6368 173.448 96.7834 175.836 98.4726C178.183 100.11 180.297 102.137 182.177 104.551ZM168.76 116.728C167.721 115.392 166.632 114.63 165.496 114.442C164.32 114.203 163.038 114.623 161.651 115.703C160.624 116.503 159.71 117.502 158.911 118.702C158.164 119.861 157.533 121.012 157.02 122.154C160.385 126.053 163.601 130.026 166.669 134.073C167.468 132.873 168.213 131.551 168.903 130.106C169.593 128.661 170.081 127.168 170.366 125.626C170.702 124.044 170.778 122.5 170.595 120.992C170.412 119.485 169.8 118.063 168.76 116.728Z" fill="#FF7F2A"/>
<path d="M251.312 108.024C251.88 109.123 252.144 110.342 252.103 111.682C252.033 112.964 251.272 114.823 249.82 117.26C248.367 119.696 246.654 122.194 244.679 124.754C242.674 127.256 240.682 129.568 238.701 131.691C236.69 133.757 235.107 135.088 233.95 135.686C233.14 136.105 232.081 136.395 230.773 136.559C229.495 136.78 228.157 136.885 226.759 136.874C225.361 136.864 224.006 136.722 222.692 136.449C221.435 136.145 220.426 135.751 219.662 135.266C219.221 134.981 218.571 134.291 217.712 133.196C216.911 132.071 216.005 130.744 214.995 129.214C214.042 127.655 213.044 126.008 212.002 124.275C210.93 122.484 209.917 120.809 208.964 119.249C208.04 117.602 207.22 116.157 206.504 114.915C205.846 113.642 205.368 112.717 205.069 112.139C203.963 109.999 202.75 107.511 201.431 104.675C200.17 101.809 199.024 98.8836 197.994 95.8983C196.934 92.8551 196.122 89.8668 195.559 86.9335C195.023 83.9124 194.957 81.1616 195.361 78.6812C195.496 77.9514 196.022 76.9834 196.938 75.7773C197.853 74.5712 198.986 73.2893 200.337 71.9318C201.745 70.5443 203.283 69.126 204.953 67.6768C206.622 66.2276 208.25 64.91 209.835 63.724C211.449 62.4503 212.934 61.353 214.29 60.4321C215.616 59.4534 216.655 58.7698 217.407 58.3811C218.275 57.9327 219.189 57.7166 220.15 57.7329C221.139 57.6613 222.058 57.8092 222.908 58.1763C223.815 58.5135 224.622 59.0123 225.33 59.6725C226.066 60.245 226.658 60.965 227.106 61.8325C227.495 62.5844 227.708 63.2803 227.746 63.9204C227.841 64.5306 227.851 65.2584 227.775 66.1039C227.585 67.1547 226.834 68.6789 225.521 70.6766C224.209 72.6742 222.723 74.7615 221.063 76.9385C219.431 79.0278 217.813 81.0005 216.207 82.8564C214.659 84.6825 213.57 85.9784 212.94 86.7439C213.396 88.1937 213.838 89.6873 214.266 91.2248C214.723 92.6746 215.252 94.1234 215.853 95.5712C217.168 93.7192 218.744 91.8053 220.581 89.8298C222.418 87.8542 224.349 86.3433 226.373 85.297C230.479 83.1745 233.578 84.1374 235.671 88.1859C236.179 89.1691 236.425 90.1412 236.409 91.1024C236.451 92.0336 236.303 92.9528 235.966 93.86C235.686 94.7373 235.261 95.6165 234.691 96.4977C234.148 97.2912 233.606 98.0847 233.063 98.8781C231.72 100.818 230.231 102.687 228.596 104.485C226.93 106.225 225.265 107.966 223.599 109.706C223.723 110.228 223.876 110.809 224.059 111.447C224.213 112.027 224.424 112.578 224.693 113.098C225.112 113.908 225.588 114.688 226.122 115.438C226.656 116.187 227.19 116.937 227.725 117.687C228.299 117.097 229.204 116.153 230.438 114.855C231.731 113.528 233.081 112.17 234.489 110.783C235.897 109.395 237.293 108.125 238.675 106.97C240.027 105.758 241.079 104.958 241.831 104.57C242.699 104.121 243.613 103.905 244.574 103.921C245.505 103.88 246.396 104.042 247.245 104.409C248.064 104.719 248.828 105.204 249.536 105.864C250.301 106.494 250.893 107.214 251.312 108.024Z" fill="#FF7F2A"/>
<path d="M292.336 58.4959C292.701 59.6778 292.929 60.97 293.022 62.3724C293.176 63.7555 293.115 65.103 292.839 66.4148C292.562 67.7266 292.042 68.9093 291.277 69.9631C290.512 71.0168 289.414 71.7646 287.983 72.2063C285.806 72.8784 284.074 73.0045 282.786 72.5845C281.478 72.1023 280.425 71.3374 279.624 70.2899C278.824 69.2424 278.191 68.0751 277.726 66.7879C277.303 65.4194 276.878 64.1537 276.451 62.991C276.024 61.8283 275.509 60.9313 274.905 60.3C274.344 59.5873 273.504 59.4038 272.384 59.7495C271.14 60.1336 270.196 60.9362 269.551 62.1574C268.886 63.3164 268.433 64.7169 268.19 66.3589C267.948 68.0009 267.856 69.8007 267.915 71.7584C268.037 73.6968 268.221 75.6161 268.466 77.5161C268.755 79.3347 269.087 81.0719 269.462 82.7277C269.818 84.3213 270.149 85.6158 270.457 86.6111C270.86 87.9174 271.371 89.463 271.99 91.2478C272.672 93.0134 273.52 94.6592 274.537 96.1852C275.534 97.6489 276.712 98.8181 278.072 99.6928C279.413 100.505 281.017 100.623 282.883 100.047C284.127 99.6632 285.292 99.1332 286.378 98.4573C287.464 97.7813 288.54 97.0743 289.607 96.3362C290.655 95.5358 291.721 94.7977 292.807 94.1218C293.955 93.4267 295.152 92.8871 296.396 92.503C297.826 92.0613 299.191 92.2873 300.489 93.1812C301.768 94.0129 302.628 95.1441 303.07 96.5749C303.684 98.5655 303.638 100.624 302.932 102.75C302.206 104.813 301.112 106.786 299.649 108.669C298.248 110.532 296.574 112.173 294.628 113.592C292.743 114.991 290.93 115.96 289.188 116.498C284.709 117.88 280.598 118.025 276.854 116.933C273.129 115.902 269.812 114.098 266.904 111.521C263.977 108.882 261.473 105.737 259.393 102.087C257.355 98.3552 255.731 94.5299 254.521 90.6108C253.715 87.9981 253.08 85.0598 252.617 81.7958C252.155 78.5318 251.941 75.191 251.976 71.7733C251.992 68.2935 252.295 64.8612 252.886 61.4766C253.538 58.0727 254.545 54.9342 255.907 52.061C257.268 49.1878 259.013 46.6732 261.141 44.5173C263.331 42.3421 265.981 40.7744 269.092 39.8142C272.14 38.8732 274.93 38.8634 277.463 39.7848C279.977 40.6441 282.221 42.0636 284.195 44.0433C286.15 45.9609 287.808 48.2425 289.17 50.8882C290.512 53.4717 291.568 56.0076 292.336 58.4959Z" fill="#FF7F2A"/>
<path d="M362.556 84.4428C362.694 85.7375 362.731 87.305 362.666 89.1452C362.665 90.9786 362.432 92.7715 361.964 94.5238C361.49 96.2114 360.765 97.6967 359.789 98.9797C358.807 100.198 357.409 100.904 355.596 101.098C353.201 101.354 351.295 100.674 349.878 99.0579C348.526 97.4347 347.463 95.4532 346.689 93.1135C345.908 90.7089 345.317 88.2513 344.918 85.7405C344.583 83.2228 344.303 81.2229 344.079 79.7409C339.502 81.0164 334.978 82.1878 330.509 83.2552C330.539 84.758 330.445 86.6341 330.227 88.8835C330.074 91.1261 329.656 93.3316 328.971 95.5C328.344 97.5969 327.398 99.4659 326.133 101.107C324.933 102.741 323.33 103.666 321.323 103.881C319.769 104.047 318.48 103.628 317.456 102.625C316.49 101.55 315.697 100.259 315.078 98.7542C314.459 97.2491 313.998 95.6942 313.695 94.0897C313.45 92.4135 313.269 91.0252 313.151 89.9247C312.757 86.2348 312.66 82.5785 312.862 78.9558C313.057 75.2683 313.352 71.6028 313.748 67.9593C313.935 66.0404 314.218 63.784 314.595 61.1901C314.972 58.5962 315.472 55.9237 316.094 53.1726C316.775 50.3499 317.591 47.578 318.544 44.857C319.555 42.0644 320.758 39.5457 322.155 37.3011C323.552 35.0564 325.217 33.176 327.15 31.6596C329.083 30.1433 331.312 29.2501 333.836 28.98C336.296 28.7169 338.491 29.0386 340.422 29.9451C342.352 30.8517 344.094 32.1386 345.647 33.8057C347.201 35.4728 348.555 37.4231 349.711 39.6566C350.859 41.8254 351.853 44.0762 352.692 46.4091C353.589 48.6703 354.352 50.9129 354.983 53.1371C355.679 55.3543 356.282 57.3196 356.792 59.0328C358.084 63.1505 359.253 67.3468 360.3 71.6217C361.34 75.8319 362.092 80.1056 362.556 84.4428ZM341.29 62.8519C341.207 62.0751 341.008 60.8197 340.691 59.0857C340.432 57.2801 340.048 55.5207 339.537 53.8074C339.02 52.0295 338.332 50.4989 337.474 49.2157C336.675 47.8607 335.692 47.2456 334.527 47.3703C333.88 47.4395 333.313 47.9585 332.828 48.9271C332.335 49.831 331.935 50.9869 331.627 52.3948C331.312 53.7379 331.048 55.2395 330.832 56.8994C330.682 58.5524 330.557 60.1372 330.457 61.6538C330.357 63.1704 330.309 64.5506 330.311 65.7944C330.306 66.9735 330.299 67.8255 330.289 68.3503C334.139 67.6111 337.906 66.7169 341.592 65.6679L341.29 62.8519Z" fill="#FF7F2A"/>
<path d="M423.84 50.7925C423.537 54.2951 422.461 57.6654 420.612 60.9036C418.829 64.1474 416.555 67.022 413.789 69.5274C411.03 71.9679 407.953 73.9236 404.558 75.3944C401.169 76.8003 397.747 77.4519 394.293 77.3491C394.127 78.511 393.933 79.9972 393.711 81.8078C393.56 83.559 393.302 85.3992 392.94 87.3282C392.577 89.2572 392.116 91.1779 391.559 93.0901C391.066 95.0079 390.396 96.7143 389.548 98.2092C388.765 99.7098 387.78 100.899 386.593 101.776C385.471 102.66 384.132 103.034 382.575 102.899C380.759 102.742 379.353 102 378.357 100.672C377.42 99.4147 376.732 97.9176 376.294 96.1807C375.921 94.4494 375.716 92.6673 375.679 90.8343C375.647 88.9365 375.655 87.3362 375.702 86.0333C375.735 84.1411 375.797 82.2841 375.89 80.4624C376.047 78.6462 376.207 76.7977 376.369 74.9167C376.442 74.0735 376.577 72.5168 376.773 70.2466C376.975 67.9116 377.202 65.2847 377.455 62.3659C377.778 59.3878 378.109 56.3125 378.449 53.1399C378.794 49.9024 379.15 46.9271 379.515 44.2142C379.886 41.4363 380.22 39.0801 380.518 37.1454C380.881 35.2164 381.207 34.1009 381.494 33.7991C381.564 33.7398 381.77 33.6269 382.111 33.4604C382.458 33.229 382.835 33.0328 383.241 32.8719C383.652 32.6461 384.029 32.45 384.37 32.2834C384.711 32.1169 384.949 32.0068 385.084 31.9532C388.214 30.5248 391.616 29.3487 395.29 28.4249C398.964 27.5011 402.552 27.1906 406.055 27.4936C409.038 27.7517 411.677 28.6007 413.97 30.0406C416.334 31.4213 418.272 33.19 419.784 35.3465C421.367 37.4439 422.498 39.8615 423.176 42.5994C423.86 45.2724 424.081 48.0034 423.84 50.7925ZM406.814 51.5744C406.926 50.2772 406.7 49.114 406.136 48.085C405.636 47.0616 404.673 46.4882 403.246 46.3647C402.014 46.2582 400.759 46.411 399.482 46.8233C398.21 47.1708 397.033 47.559 395.95 47.9882C395.948 50.2752 395.92 52.4945 395.864 54.6462C395.874 56.8035 395.715 59.0116 395.389 61.2705C396.472 60.8414 397.658 60.3558 398.946 59.8138C400.24 59.2069 401.443 58.5267 402.553 57.7733C403.664 57.0198 404.621 56.1551 405.424 55.179C406.233 54.138 406.696 52.9365 406.814 51.5744Z" fill="#FF7F2A"/>
<path d="M453.555 44.3513C453.327 45.3679 452.743 46.6382 451.802 48.1623C450.939 49.6371 449.924 51.0446 448.757 52.3848C447.654 53.7393 446.473 54.8429 445.215 55.6958C443.957 56.5486 442.851 56.8685 441.898 56.6555C440.628 56.3714 440.141 55.5623 440.44 54.228C440.61 53.4656 440.932 52.7704 441.406 52.1426C441.88 51.5147 442.379 50.9257 442.902 50.3755C443.439 49.7618 443.938 49.1728 444.398 48.6085C444.857 48.0441 445.165 47.4125 445.321 46.7136C444.806 46.9319 444.241 47.0724 443.626 47.1352C443.075 47.2122 442.546 47.1939 442.037 47.0802C440.576 46.7536 439.465 45.9048 438.704 44.5339C437.943 43.163 437.726 41.7469 438.053 40.2855C438.507 38.2524 439.536 36.7814 441.141 35.8724C442.745 34.9635 444.563 34.7363 446.596 35.1908C448.884 35.7021 450.75 36.7531 452.196 38.3437C453.656 39.8709 454.109 41.8734 453.555 44.3513Z" fill="#FF7F2A"/>
<path d="M495.229 110.571C494.803 111.732 494.082 112.751 493.067 113.627C492.074 114.441 490.189 115.136 487.412 115.712C484.635 116.287 481.635 116.711 478.414 116.985C475.215 117.198 472.164 117.291 469.26 117.265C466.379 117.179 464.328 116.911 463.105 116.462C462.25 116.148 461.32 115.564 460.316 114.71C459.289 113.916 458.308 113.001 457.371 111.964C456.434 110.926 455.623 109.831 454.936 108.677C454.311 107.546 453.92 106.535 453.761 105.645C453.674 105.127 453.743 104.182 453.97 102.809C454.258 101.458 454.624 99.8934 455.069 98.1149C455.575 96.3588 456.115 94.511 456.689 92.5716C457.284 90.571 457.835 88.6927 458.341 86.9366C458.931 85.1418 459.442 83.561 459.875 82.194C460.368 80.8495 460.727 79.8716 460.952 79.2605C461.782 76.9992 462.797 74.4243 463.996 71.5356C465.256 68.6694 466.639 65.8481 468.144 63.0717C469.671 60.2341 471.326 57.6166 473.108 55.2193C474.973 52.7832 476.956 50.876 479.058 49.4975C479.687 49.1046 480.756 48.8381 482.264 48.6982C483.772 48.5583 485.482 48.5274 487.395 48.6057C489.37 48.7064 491.455 48.8825 493.651 49.1341C495.848 49.3856 497.919 49.6952 499.864 50.0628C501.893 50.3917 503.706 50.745 505.301 51.1226C506.918 51.4392 508.124 51.7433 508.919 52.035C509.836 52.3716 510.613 52.8996 511.25 53.6191C511.971 54.3 512.483 55.0775 512.786 55.9517C513.151 56.8483 513.329 57.7806 513.32 58.7484C513.395 59.6775 513.264 60.6004 512.928 61.5172C512.636 62.3117 512.267 62.939 511.82 63.3993C511.435 63.882 510.905 64.381 510.231 64.8962C509.328 65.4663 507.697 65.9424 505.337 66.3244C502.977 66.7064 500.434 67.0211 497.708 67.2685C495.065 67.4772 492.517 67.6167 490.064 67.6869C487.672 67.7796 485.981 67.8522 484.991 67.9048C484.23 69.2207 483.428 70.5559 482.584 71.9105C481.823 73.2263 481.113 74.5952 480.452 76.0171C482.705 75.7349 485.181 75.6035 487.879 75.623C490.576 75.6425 492.995 76.045 495.134 76.8304C499.473 78.4235 500.857 81.3591 499.286 85.6372C498.905 86.6761 498.354 87.5143 497.635 88.1517C496.976 88.8116 496.199 89.3237 495.302 89.688C494.467 90.0748 493.531 90.3555 492.496 90.5303C491.545 90.6664 490.593 90.8025 489.642 90.9386C487.304 91.2595 484.921 91.4245 482.49 91.4337C480.081 91.3817 477.673 91.3297 475.265 91.2777C474.963 91.7218 474.639 92.2269 474.292 92.7932C473.968 93.2983 473.705 93.8259 473.503 94.376C473.189 95.2316 472.936 96.1096 472.744 97.0101C472.552 97.9106 472.36 98.8111 472.168 99.7116C472.991 99.7364 474.299 99.7655 476.089 99.7989C477.942 99.8547 479.855 99.9329 481.829 100.034C483.803 100.134 485.683 100.304 487.467 100.543C489.275 100.721 490.576 100.956 491.37 101.248C492.287 101.585 493.064 102.113 493.701 102.832C494.361 103.491 494.843 104.257 495.146 105.131C495.471 105.944 495.63 106.835 495.621 107.802C495.674 108.793 495.543 109.716 495.229 110.571Z" fill="#FF7F2A"/>
<path d="M562.646 106.161C560.871 109.195 558.453 111.779 555.395 113.911C552.392 116.077 549.105 117.698 545.533 118.775C541.993 119.797 538.374 120.244 534.677 120.117C531.013 119.933 527.642 119.054 524.566 117.48C523.917 118.458 523.105 119.718 522.128 121.258C521.24 122.775 520.219 124.327 519.063 125.914C517.908 127.501 516.669 129.039 515.345 130.527C514.078 132.049 512.74 133.303 511.333 134.29C509.982 135.309 508.582 135.961 507.134 136.245C505.741 136.561 504.371 136.325 503.022 135.536C501.449 134.615 500.497 133.341 500.167 131.715C499.86 130.177 499.881 128.53 500.23 126.773C500.636 125.049 501.215 123.351 501.967 121.679C502.752 119.951 503.445 118.509 504.047 117.352C504.888 115.657 505.741 114.006 506.606 112.4C507.526 110.827 508.464 109.225 509.417 107.596C509.845 106.865 510.634 105.517 511.785 103.55C512.969 101.528 514.301 99.2519 515.78 96.7234C517.349 94.1717 518.968 91.5356 520.635 88.8152C522.335 86.0387 523.932 83.5034 525.426 81.2092C526.952 78.8589 528.265 76.8738 529.364 75.2539C530.519 73.6669 531.291 72.7987 531.68 72.6493C531.77 72.626 532.004 72.6123 532.383 72.6081C532.796 72.5478 533.22 72.532 533.656 72.5608C534.125 72.5333 534.549 72.5175 534.928 72.5134C535.308 72.5092 535.57 72.512 535.716 72.5215C539.155 72.5733 542.733 72.9698 546.448 73.7109C550.163 74.452 553.538 75.7104 556.572 77.4862C559.157 78.9989 561.176 80.8974 562.63 83.1817C564.173 85.4427 565.166 87.8717 565.607 90.4685C566.138 93.0421 566.122 95.7109 565.561 98.475C565.032 101.183 564.06 103.745 562.646 106.161ZM546.931 99.5659C547.589 98.4422 547.883 97.2944 547.815 96.1228C547.802 94.984 547.178 94.0528 545.942 93.3294C544.874 92.7046 543.675 92.3045 542.344 92.1292C541.047 91.8977 539.817 91.7436 538.654 91.667C537.672 93.7322 536.694 95.7248 535.722 97.6448C534.805 99.5977 533.715 101.525 532.452 103.425C533.614 103.502 534.893 103.572 536.289 103.635C537.719 103.641 539.097 103.543 540.423 103.338C541.75 103.134 542.985 102.763 544.129 102.226C545.306 101.633 546.24 100.746 546.931 99.5659Z" fill="#FF7F2A"/>
<path d="M609.197 122.924C608.246 124.08 607.042 124.775 605.584 125.009C604.177 125.285 602.743 125.285 601.283 125.011C599.923 124.819 598.497 124.657 597.004 124.525C595.552 124.342 594.093 124.322 592.627 124.464C591.202 124.557 589.845 124.873 588.557 125.415C587.268 125.956 586.127 126.83 585.134 128.037C584.266 129.093 583.731 130.255 583.53 131.523C583.33 132.791 583.23 134.142 583.23 135.576C583.323 137.001 583.424 138.517 583.534 140.126C583.735 141.725 583.733 143.367 583.527 145.052C583.412 146.728 583.048 148.452 582.434 150.223C581.819 151.994 580.768 153.784 579.278 155.594C578.244 156.851 576.789 158.056 574.912 159.21C573.127 160.355 571.12 161.359 568.891 162.223C566.663 163.087 564.299 163.756 561.802 164.23C559.354 164.746 556.93 165.027 554.53 165.076C552.221 165.115 550.023 164.866 547.935 164.329C545.807 163.842 544.039 163.019 542.631 161.861C541.073 160.579 540.042 159.014 539.538 157.166C539.035 155.319 539.487 153.54 540.893 151.831C541.845 150.675 542.99 149.847 544.329 149.347C545.709 148.796 547.174 148.399 548.723 148.156C550.272 147.913 551.876 147.758 553.534 147.689C555.243 147.662 556.851 147.552 558.358 147.359C559.866 147.166 561.269 146.845 562.566 146.395C563.905 145.895 565.009 145.117 565.878 144.061C567.077 142.603 567.77 140.686 567.955 138.309C568.232 135.923 568.404 133.409 568.471 130.766C568.579 128.073 568.809 125.437 569.16 122.859C569.561 120.323 570.485 118.175 571.933 116.415C573.712 114.254 576.152 112.467 579.252 111.056C582.394 109.594 585.677 108.628 589.1 108.156C592.564 107.635 595.965 107.651 599.303 108.205C602.641 108.76 605.416 109.947 607.628 111.767C609.387 113.215 610.461 114.984 610.849 117.074C611.237 119.164 610.687 121.114 609.197 122.924Z" fill="#FF7F2A"/>
</svg>
