<?xml version="1.0" encoding="UTF-8"?>
<svg id="Calque_1" data-name="Calque 1" xmlns="http://www.w3.org/2000/svg" viewBox="0 0 429 332">
  <defs>
    <style>
      .cls-1 {
        fill: #ffd3bb;
      }

      .cls-2 {
        fill: #ff7f2a;
      }
    </style>
  </defs>
  <path class="cls-2" d="M136.8,94.87c.06.47.21.84.12,1.12-.9,2.7.59,3.69,2.82,4.64,2.53,1.08,4.91,2.57,6.59,4.87,1.31,1.78.85,3.62-1.03,4.16-.53.15-1.25.1-1.74-.14-2.33-1.17-4.6-2.47-6.93-3.66-.66-.34-1.32-1.32-2.18-.47-1.23,1.22-1.33,2.4-.69,3.57,1.07,1.95,2.13,3.93,2.96,5.99.24.59-.07,1.81-.56,2.19-.57.44-1.85.66-2.4.31-1.59-1.02-3.2-2.18-4.38-3.63-3.87-4.75-7.52-9.68-11.32-14.49-1.57-1.98-2.06-3.96-.53-6.13,1.42-2.02,2.67-4.23,4.41-5.95,3.71-3.68,8.42-2.91,11.91.73,1.86,1.93,3.17,4.19,2.95,6.9ZM128.36,101.64c1.62-2.07,2.27-4.16,1.78-6.39-.19-.86-1.07-1.92-1.87-2.2-.69-.24-1.81.36-2.57.86-.58.38-.93,1.15-1.27,1.81-.14.27-.13.79.05,1.02,1.21,1.6,2.48,3.15,3.88,4.91Z"/>
  <path class="cls-2" d="M200.24,57.19c2.11.16,3.96,1.65,4.89,3.89,1.59,3.84,3.04,7.76,4.18,11.75.84,2.94,1.24,6.04,1.56,9.1.13,1.22-.28,2.61-.8,3.76-.87,1.91-3.46,2.05-4.36.15-.92-1.95-1.48-4.12-1.93-6.24-.27-1.24-.7-1.28-1.8-1.13-3,.41-5.33,1.15-5.02,5.02.1,1.2-.73,2.61-1.46,3.71-1.08,1.64-2.99,1.51-3.79-.27-.62-1.38-1.07-2.93-1.17-4.44-.29-4.64.01-9.26.97-13.82.67-3.18,1.39-6.32,3.42-8.97,1.21-1.58,2.75-2.51,5.3-2.51ZM197.33,73.83c1.66-.38,3.07-.68,4.45-1.05.29-.08.74-.51.7-.68-.55-2.29-.99-4.63-1.85-6.81-.49-1.25-1.93-1.02-2.38.31-.86,2.58-1.06,5.25-.93,8.23Z"/>
  <path class="cls-2" d="M260.91,76.78c1.82.13,3.54.15,5.24.4,1.27.18,2.51.64,2.62,2.26.1,1.57-.66,2.78-2.44,3.1-2.15.39-4.36.43-6.54.56-1.37.08-2.99,2.25-2.44,3.48.12.27.75.4,1.17.45,2.09.22,4.19.35,6.28.57,1.42.15,2.14,1.08,2.26,2.45.12,1.38-.49,2.42-1.8,2.85-1.24.4-2.53.77-3.82.86-2.18.15-4.39.16-6.57.04-2.97-.16-5.43-3.5-4.7-6.36,1.64-6.46,3.59-12.79,7.29-18.46,1.8-2.76,3.98-4.18,7.4-3.42,2.18.49,4.44.62,6.65.98,1.88.3,2.8,1.2,2.94,2.7.15,1.67-.69,2.91-2.33,3.13-2.22.29-4.46.52-6.69.6-2.82.1-3.79.82-4.5,3.81Z"/>
  <path class="cls-2" d="M149.26,85.23c.57-.66,1.06-1.32,1.66-1.88.85-.8,1.71-1.6,2.67-2.25.93-.63,1.99-.86,2.99,0,.98.85,1.41,2.32.71,3.45-1.04,1.66-2.19,3.27-3.48,4.74-1.82,2.08-1.9,2.18-.3,4.49.18.26.39.51,1.02,1.34.59-.86,1.01-1.67,1.62-2.3,1.15-1.17,2.38-2.26,3.63-3.31,1.1-.92,2.27-.76,3.34.09,1.06.84,1.55,1.92.87,3.22-1.71,3.27-3.85,6.22-6.73,8.56-1.89,1.54-5.74,1.27-7.05-.63-4.06-5.88-7.51-12.08-9.29-19.1-.68-2.69.03-4.81,2.06-6.53,2.11-1.78,4.27-3.51,6.49-5.15,1.36-1.01,2.53-.81,3.67.31.97.95,1.16,2.1.26,3.45-1.24,1.87-2.61,3.66-4.01,5.41-1.8,2.26-1.89,3.38-.14,6.1Z"/>
  <path class="cls-2" d="M296.7,83.7c-.03,5.14-2.92,8.95-7.46,10.62-2.9,1.06-5.84,1.31-8.76.09-.84-.35-1.25-.09-1.72.59-1.13,1.66-2.27,3.32-3.53,4.88-.57.71-1.34,1.44-2.17,1.7-.82.27-2.08.3-2.69-.17-.62-.47-1.1-1.78-.9-2.54.48-1.88,1.17-3.78,2.14-5.45,3.23-5.54,6.63-10.98,9.93-16.47.65-1.08,1.5-1.69,2.76-1.43,2.59.53,5.27.86,7.73,1.76,3.24,1.18,4.65,3.88,4.66,6.42ZM282.73,88.31c.1.19.2.38.29.57,1.58-.25,3.21-.33,4.72-.8,1.22-.38,1.92-1.5,1.78-2.88-.13-1.3-1.23-1.57-2.23-1.76-.67-.13-1.81-.24-2.03.11-.98,1.49-1.71,3.15-2.53,4.75Z"/>
  <path class="cls-2" d="M216.74,81.2c.52-5.22,1-10.15,1.51-15.08.19-1.81.35-3.64.71-5.42.15-.73.64-1.68,1.25-1.97,2.75-1.32,5.63-2.25,8.78-2.13,3.95.14,7.35,3.27,7.67,7.22.53,6.51-4.44,12.48-10.97,13.13-.95.09-1.4.47-1.56,1.42-.36,2.07-.76,4.13-1.25,6.18-.17.71-.47,1.5-.97,1.99-.62.6-1.55,1.31-2.28,1.25-.74-.07-1.78-.9-2-1.62-.53-1.66-.65-3.46-.89-4.96ZM224.99,70.59c2.47-.38,4.63-2.06,4.98-3.81.27-1.35-.36-2.49-1.52-2.73-1.35-.29-3.37.58-3.43,1.6-.1,1.61-.03,3.24-.03,4.94Z"/>
  <path class="cls-2" d="M176.31,94.1c-2.13-.18-4.55-1.4-6.43-3.58-3.13-3.65-4.63-7.96-5.01-12.71-.28-3.48-.2-6.92,1.15-10.22.99-2.42,2.44-4.37,4.92-5.5,2.27-1.04,4.37-.76,6.17.77,2.71,2.31,4.27,5.31,4.37,8.93.05,1.95-.76,2.89-2.57,3.3-1.42.32-2.28-.18-3.14-1.92-.37-.75-.56-1.59-.94-2.34-.81-1.56-2.36-1.64-3.08-.03-.53,1.2-.88,2.63-.8,3.92.2,3.46.77,6.88,2.44,10.01,1.48,2.77,3.15,3.25,5.85,1.64.97-.57,1.87-1.25,2.84-1.81.91-.53,1.9-1.02,2.85-.16.94.86,1.18,1.96.86,3.2-.95,3.7-4.67,6.48-9.48,6.48Z"/>
  <path class="cls-2" d="M291.99,114.33c-1.3-.32-2.66-.5-3.89-.99-1.24-.49-2.04-1.5-1.97-2.96.07-1.38,1.03-2.1,2.19-2.46,1.06-.33,2.19-.44,3.3-.61.41-.06.84,0,1.26-.03,3.8-.17,5.14-1.6,5.39-5.71.07-1.21.2-2.43.22-3.64.05-4.1,2.84-5.8,6.16-6.86,2.19-.7,4.51-.91,6.8-.34,1.52.38,2.97.93,3.83,2.37.6,1,.69,2.06-.02,3.04-.72,1-1.73,1.34-2.95,1.22-1.43-.14-2.91-.45-4.3-.26-2.99.41-4.17,2.21-3.91,5.25.12,1.35.17,2.73.01,4.06-.36,2.99-2.22,4.88-4.85,6.08-2.28,1.04-4.67,1.67-7.27,1.82Z"/>
  <path class="cls-2" d="M246.38,64.51c-.52-.12-.73-.19-.95-.21-1.43-.16-2.23-.86-2.26-2-.03-1.29.99-2.44,2.34-2.54,1.4-.11,2.62.36,3.43,1.52.76,1.09.55,2.3-.18,3.28-.9,1.23-1.94,2.36-3.01,3.45-.24.24-.83.15-1.25.2.05-.46-.02-1,.19-1.38.44-.77,1.04-1.46,1.69-2.33Z"/>
  <path class="cls-1" d="M203.64,152.84c0,3.14.05,6.29-.04,9.43-.02.78-.31,1.69-.78,2.31-10.7,14.16-23.48,26.03-39.05,34.68-10.95,6.08-22.57,10.54-34.74,13.56-2.79.69-5.27.13-7.7-1.18-7.46-4.02-14.39-8.8-20.82-14.32-12.74-10.91-22.65-24.04-30.68-38.69-.97-1.76-2.02-3.49-3.16-5.14-1.09-1.58-1.22-2.94,0-4.58,3.26-4.41,6.4-8.91,9.57-13.38.71-.99,1.45-1.97,2.05-3.03.5-.88,1.07-1,1.81-.45,1.66,1.22,3.32,2.44,4.93,3.73,3.49,2.77,6.96,5.56,10.4,8.38,1.64,1.35,1.61,1.79-.3,2.74-1.33.66-2.83.98-4.16,1.65-3.64,1.83-7.27,3.69-10.82,5.69-2.28,1.28-2.18,4.37.11,5.56,10.03,5.19,20.08,10.34,30.12,15.51.17.09.33.18.51.25,3.1,1.18,4.37,3.13,4.3,6.71-.14,6.85,3.09,12.38,8.17,16.9,2.67,2.37,5.63,3.99,9.24,4.31,4.82.43,9.16-1.06,13.27-3.34,7.03-3.91,12.66-9.46,17.88-15.47,1.69-1.95,3.3-3.96,4.96-5.93.99-1.18.59-3.31-.92-3.93-1.2-.48-2.52-.77-3.81-.85-.52-.03-1.16.66-1.61,1.15-3.49,3.79-6.83,7.73-10.46,11.38-3.45,3.46-7.36,6.42-11.87,8.43-5.57,2.47-9.57,1.93-13.21-2.55-2.85-3.51-5.31-7.29-4.92-12.05.18-2.2.9-4.4,1.68-6.49,2.23-5.97,5.2-11.53,9.69-16.17,3.21-3.32,7.08-5.5,11.52-6.71,2.47-.67,3.14-.35,4.11,2.01,1.21,2.93,2.86,5.57,4.95,7.96,3.98,4.53,9.12,6.51,14.97,7.09,5.59.56,10.78-.61,15.3-3.9,2.32-1.69,4.31-3.88,6.25-6.04,1.45-1.61,1.24-3.52-.12-4.8-1.55-1.44-3.77-1.5-5.33-.02-1.49,1.41-2.78,3.05-4.33,4.39-7.46,6.5-20.77,3.14-24.36-6.28-.99-2.61-1.82-5.36-2.12-8.12-.24-2.21.22-4.57.74-6.77,1.65-6.98,5.38-12.49,12.14-15.41,2.37-1.02,5-1.65,7.57-1.91,4-.41,8.07-.37,12.02.62,7.36,1.84,11.85,6.84,14.65,13.6,1.65,3.97,2.62,8.09,2.48,12.44-.08,2.34-.01,4.69-.01,7.03,0,0-.02,0-.03,0Z"/>
  <path class="cls-1" d="M259.64,167.7c9.01-.15,16.21-5.01,20.43-14.34,1.6-3.55,1.97-3.71,5.76-2.55,6.02,1.85,10.48,5.74,13.96,10.81,3.57,5.22,6.32,10.86,7.55,17.11.29,1.46.2,3.1-.14,4.56-.88,3.73-2.97,6.84-5.55,9.64-2.84,3.08-6.3,3.41-10.07,2.37-4.22-1.16-7.61-3.78-10.95-6.45-5.24-4.18-9.56-9.25-13.77-14.41-.59-.72-1.15-1.16-2.12-.92-.72.18-1.48.22-2.21.4-1.04.25-2.04.7-2.2,1.89-.17,1.27-.36,2.52.91,3.58,1.32,1.1,2.4,2.49,3.53,3.81,5.07,5.88,10.44,11.41,17.09,15.56,3.46,2.16,7.16,3.75,11.2,4.29,4.9.65,9.06-.97,12.77-4.22,5.36-4.71,8.4-10.45,8.51-17.65,0-.33.04-.67-.05-.98-.5-1.77.32-2.92,1.77-3.7,2.56-1.38,5.14-2.7,7.73-4.03,8.41-4.34,16.83-8.66,25.22-13.03,2.46-1.28,2.49-4.36.06-5.72-3.14-1.77-6.31-3.51-9.54-5.12-1.66-.83-3.53-1.24-5.21-2.04-2.04-.97-2.07-1.5-.3-2.93,4.48-3.63,8.96-7.25,13.49-10.83,2.58-2.04,2.63-1.96,4.51.7,3.51,4.98,7.04,9.94,10.62,14.87,1.12,1.54,1.12,2.98.17,4.55-2.23,3.69-4.44,7.38-6.64,11.08-9.9,16.58-22.56,30.6-38.64,41.41-2.91,1.96-6.02,3.64-9.02,5.46-3.12,1.89-6.35,2.16-9.86,1.15-14.77-4.25-28.93-9.84-41.69-18.57-11.87-8.12-21.96-18.12-30.59-29.6-.36-.48-.58-1.2-.58-1.8-.06-6.28-.4-12.59,0-18.85.51-8,3.26-15.19,9.81-20.4,2.89-2.3,6.24-3.52,9.91-3.94,4.35-.5,8.74-.62,12.98.36,8.49,1.96,13.34,7.68,15.88,15.83,1.95,6.27.9,12.08-2.06,17.62-4.56,8.52-17.01,10.52-24.14,4.01-1.03-.94-1.94-2.02-2.85-3.09-1.55-1.82-3.33-2.32-5.23-1.4-1.99.96-2.7,3.21-1.37,4.96,4.61,6.07,10.57,10.53,20.92,10.55Z"/>
  <path class="cls-2" d="M58.08,146.29c1.37-2.05,2.67-4.15,4.11-6.15,4.31-5.97,8.67-11.9,13.01-17.84.22-.3.46-.59.7-.88,1.69-2.05,3.24-2.3,5.32-.66,6.67,5.24,13.31,10.53,19.95,15.81,1.54,1.22,3.11,2.42,4.52,3.79,1.93,1.88,1.68,3.99-.67,5.33-3.34,1.9-6.78,3.62-10.15,5.45-1.37.75-2.69,1.59-4.34,2.57.9.64,1.42,1.11,2.01,1.42,6.37,3.29,12.74,6.57,19.13,9.83,1.42.72,2.89,1.33,4.34,2,1.05.48,1.48.12,1.95-.95,3.67-8.32,8.13-16.07,16-21.25,3.27-2.15,6.9-3.37,10.66-4.19,1.37-.3,1.78-1.01,1.97-2.25,1.06-6.89,3.12-13.4,7.41-19.04,4.44-5.84,10.43-8.96,17.59-10.04,5.27-.8,10.54-.96,15.76.32,10.36,2.54,17.11,9.03,20.6,19.04,1.93,5.55,2.79,11.26,2.79,17.1.02,29.59-.05,59.19.04,88.78.04,10.83-2.91,20.52-9.94,28.82-4.98,5.89-11.1,10.06-18.81,11.5-9.83,1.84-18.55-.67-26.26-6.94-3.16-2.57-5.71-5.68-7.93-9.07-.62-.95-1.4-1.41-2.53-1.47-13.76-.7-22.7-8.19-28.28-20.26-2.65-5.74-2.97-11.74-1.47-17.85.15-.59.28-1.19.42-1.78.81-3.33.79-3.52-2.14-5.17-11.94-6.73-22.11-15.61-31.2-25.76-9.38-10.48-16.96-22.16-22.7-35.02-.68-1.53-1.26-3.1-1.89-4.65,0-.19,0-.38,0-.56ZM203.64,149.32s.02,0,.03,0c0-2.35-.06-4.69.01-7.03.14-4.35-.83-8.47-2.48-12.44-2.8-6.76-7.3-11.76-14.65-13.6-3.95-.99-8.01-1.03-12.02-.62-2.57.26-5.2.89-7.57,1.91-6.76,2.91-10.49,8.43-12.14,15.41-.52,2.2-.98,4.56-.74,6.77.3,2.75,1.13,5.51,2.12,8.12,3.59,9.42,16.91,12.79,24.36,6.28,1.54-1.35,2.84-2.98,4.33-4.39,1.56-1.48,3.78-1.42,5.33.02,1.37,1.27,1.57,3.19.12,4.8-1.93,2.15-3.93,4.34-6.25,6.04-4.51,3.29-9.71,4.46-15.3,3.9-5.85-.58-11-2.57-14.97-7.09-2.09-2.38-3.74-5.03-4.95-7.96-.97-2.36-1.65-2.68-4.11-2.01-4.44,1.21-8.31,3.39-11.52,6.71-4.48,4.64-7.46,10.19-9.69,16.17-.78,2.09-1.5,4.29-1.68,6.49-.38,4.76,2.07,8.54,4.92,12.05,3.64,4.49,7.64,5.03,13.21,2.55,4.51-2,8.42-4.97,11.87-8.43,3.63-3.65,6.97-7.59,10.46-11.38.45-.49,1.1-1.18,1.61-1.15,1.29.08,2.61.37,3.81.85,1.51.61,1.92,2.74.92,3.93-1.66,1.97-3.27,3.99-4.96,5.93-5.22,6.01-10.85,11.57-17.88,15.47-4.11,2.29-8.45,3.77-13.27,3.34-3.61-.32-6.57-1.94-9.24-4.31-5.08-4.52-8.31-10.05-8.17-16.9.07-3.58-1.2-5.54-4.3-6.71-.17-.07-.34-.16-.51-.25-10.04-5.16-20.09-10.31-30.12-15.51-2.3-1.19-2.39-4.28-.11-5.56,3.55-2,7.18-3.85,10.82-5.69,1.33-.67,2.83-.98,4.16-1.65,1.91-.95,1.95-1.39.3-2.74-3.44-2.83-6.92-5.61-10.4-8.38-1.61-1.28-3.27-2.51-4.93-3.73-.74-.54-1.31-.43-1.81.45-.6,1.06-1.34,2.03-2.05,3.03-3.18,4.47-6.31,8.97-9.57,13.38-1.21,1.64-1.08,3,0,4.58,1.14,1.65,2.19,3.38,3.16,5.14,8.02,14.64,17.94,27.78,30.68,38.69,6.44,5.51,13.36,10.29,20.82,14.32,2.44,1.31,4.92,1.87,7.7,1.18,12.17-3.02,23.79-7.47,34.74-13.56,15.57-8.65,28.34-20.52,39.05-34.68.47-.62.75-1.53.78-2.31.09-3.14.04-6.28.04-9.43ZM203.98,196.67h.02c0-7.22.01-14.45-.02-21.67,0-.79-.26-1.58-.4-2.37-.69.49-1.51.87-2.06,1.49-8.58,9.74-18.2,18.29-29.28,25.06-11.57,7.08-23.97,12.34-37.06,15.94-3.56.98-7.09,2.12-10.87,1.97-1.12-.04-1.55.77-1.78,1.67-1.01,3.9-1.37,7.89-.55,11.82,2.14,10.13,10.35,17.68,20.52,19.41,3.04.52,5.82.87,7.98-1.91.11-.15.27-.26.41-.38,2.34-1.96,4.62-3.98,7.02-5.84,2.31-1.78,5-2.74,7.91-2.15,4.36.88,8.37,2.78,12.12,5.08,1.12.69,1.87,2.14,2.52,3.38.54,1.03.15,2.28-.8,2.88-.68.42-1.83.58-2.57.31-1.39-.49-2.63-1.39-3.94-2.1-1.93-1.05-3.83-2.17-5.82-3.09-1.73-.81-3.5-.56-5.09.5-2.83,1.89-4.55,4.55-5.29,7.84-.72,3.21,0,5.95,2.78,7.95,1.07.77,2.11,1.56,3.22,2.27,8.63,5.52,17.42,5.7,26.04.21,7.97-5.07,12.47-12.61,14.42-21.78,1.24-5.81-1.24-10.13-5.6-13.43-4.08-3.08-8.94-4.4-14.04-4.8-1.95-.15-3.91-.36-5.83-.74-1.47-.29-1.94-1.47-1.85-2.9.09-1.34.59-2.38,1.97-2.74.76-.2,1.58-.4,2.35-.34,2.84.22,5.71.33,8.49.88,4.57.9,8.97,2.36,12.74,5.28.42.32.92.54,1.38.8.21-.55.56-1.09.6-1.65.16-2.24.3-4.49.31-6.74.04-6.71.01-13.41.01-20.12Z"/>
  <path class="cls-2" d="M338.81,153.32c-1.5-.92-2.72-1.75-4.01-2.45-2.8-1.51-5.65-2.95-8.47-4.43-.62-.33-1.23-.67-1.83-1.05-2.49-1.58-2.82-3.7-.61-5.63,3.24-2.84,6.61-5.54,9.98-8.22,4.58-3.65,9.21-7.25,13.83-10.85,2.63-2.06,4.31-1.85,6.27.84,5.04,6.94,10.05,13.9,15.06,20.86.46.64.82,1.36,1.26,2.03.81,1.25.8,2.52.26,3.88-2.91,7.35-6.73,14.22-10.99,20.86-6.73,10.49-14.74,19.86-24.04,28.15-6.04,5.38-12.47,10.21-19.49,14.25-3.52,2.02-3.53,2.06-2.5,5.99,3.21,12.34-.72,22.48-9.6,31.06-4.64,4.49-10.15,7.32-16.63,8.08-1.16.14-2.33.3-3.49.28-1.09-.01-1.69.51-2.24,1.36-3.47,5.36-7.83,9.79-13.5,12.85-4.94,2.67-10.17,3.89-15.79,3.68-13.47-.51-22.29-7.96-28.58-19.11-3.54-6.28-5.12-13.1-5.08-20.34.07-14.63,0-29.26-.03-43.9,0-2.2-.22-4.4-.21-6.6.07-13.88.06-27.76.31-41.64.14-7.92,1.8-15.57,6.24-22.3,5.14-7.79,12.58-11.76,21.82-12.61,5.1-.47,10.12-.15,15.02,1.24,8.6,2.43,14.37,8.13,17.6,16.28,1.54,3.88,2.42,8.04,3.41,12.12.33,1.37.94,1.95,2.23,2.23,5.47,1.15,10.53,3.29,14.45,7.34,2.62,2.71,5.05,5.68,7.15,8.81,1.89,2.82,3.28,5.99,4.73,9.08.57,1.21,1.18,1.4,2.27.88,3.12-1.5,6.28-2.94,9.37-4.5,4.77-2.41,9.49-4.9,14.22-7.38.47-.25.88-.63,1.6-1.16ZM259.64,164.17c-10.35-.03-16.31-4.49-20.92-10.55-1.33-1.74-.62-4,1.37-4.96,1.9-.92,3.68-.41,5.23,1.4.91,1.07,1.82,2.15,2.85,3.09,7.13,6.51,19.58,4.51,24.14-4.01,2.96-5.53,4.01-11.35,2.06-17.62-2.54-8.15-7.39-13.87-15.88-15.83-4.25-.98-8.63-.86-12.98-.36-3.67.43-7.02,1.64-9.91,3.94-6.55,5.21-9.3,12.39-9.81,20.4-.4,6.26-.06,12.56,0,18.85,0,.61.22,1.32.58,1.8,8.63,11.48,18.72,21.48,30.59,29.6,12.76,8.73,26.92,14.32,41.69,18.57,3.5,1.01,6.74.74,9.86-1.15,3-1.83,6.11-3.5,9.02-5.46,16.08-10.81,28.74-24.82,38.64-41.41,2.21-3.7,4.41-7.4,6.64-11.08.95-1.57.94-3.01-.17-4.55-3.58-4.93-7.11-9.89-10.62-14.87-1.88-2.66-1.93-2.74-4.51-.7-4.52,3.57-9.01,7.19-13.49,10.83-1.77,1.43-1.74,1.96.3,2.93,1.68.8,3.55,1.21,5.21,2.04,3.23,1.61,6.39,3.35,9.54,5.12,2.43,1.37,2.39,4.45-.06,5.72-8.39,4.37-16.82,8.69-25.22,13.03-2.58,1.33-5.17,2.66-7.73,4.03-1.45.78-2.28,1.93-1.77,3.7.09.31.05.65.05.98-.12,7.19-3.15,12.94-8.51,17.65-3.71,3.26-7.87,4.88-12.77,4.22-4.05-.54-7.74-2.13-11.2-4.29-6.65-4.15-12.03-9.68-17.09-15.56-1.13-1.31-2.21-2.7-3.53-3.81-1.27-1.07-1.08-2.31-.91-3.58.16-1.19,1.16-1.64,2.2-1.89.72-.18,1.48-.22,2.21-.4.97-.24,1.53.2,2.12.92,4.22,5.16,8.54,10.23,13.77,14.41,3.34,2.66,6.72,5.29,10.95,6.45,3.77,1.04,7.24.71,10.07-2.37,2.58-2.8,4.67-5.91,5.55-9.64.35-1.46.43-3.1.14-4.56-1.24-6.25-3.98-11.89-7.55-17.11-3.47-5.07-7.93-8.96-13.96-10.81-3.79-1.17-4.16-1-5.76,2.55-4.22,9.33-11.42,14.19-20.43,14.34ZM225.94,224.87c.17.02.35.04.52.06.7-.53,1.38-1.09,2.1-1.6,4.21-2.94,9-4.4,14-5.09,2.66-.37,5.39-.36,8.08-.28,1.68.05,2.57,1.27,2.63,2.92.07,1.88-.67,2.87-2.81,3.18-2.35.34-4.77.28-7.11.66-4.57.74-9.03,2-12.59,5.12-3.48,3.06-5.81,6.82-4.99,11.74,1.08,6.46,3.58,12.32,7.96,17.26,6.77,7.63,15.07,11.11,25.29,8.86,4.35-.96,7.94-3.5,11.33-6.28,1.37-1.12,2.08-2.65,2.29-4.38.46-3.91-2.6-9.45-6.13-11.14-1.35-.65-2.76-.95-4.19-.23-2,1.01-3.98,2.06-5.96,3.12-1.32.71-2.54,1.65-3.94,2.11-.85.28-2.33.18-2.81-.37-.61-.7-.93-2.2-.59-3.05.5-1.26,1.46-2.66,2.61-3.27,3.13-1.67,6.41-3.09,9.72-4.37,3.58-1.38,7.04-.8,10.05,1.59,2.97,2.36,5.89,4.79,8.7,7.34,1.31,1.19,2.66,1.42,4.25,1.13.37-.07.74-.14,1.11-.19,6.47-.88,12.09-3.14,16.39-8.46,5.4-6.67,6.94-14.04,5.17-22.25-.44-2.06-.72-2.17-2.74-2.2-.51,0-1.04-.02-1.53-.15-5.52-1.45-11.13-2.62-16.52-4.44-13.66-4.62-26.55-10.84-38.07-19.63-7.17-5.47-13.81-11.54-19.78-18.33-.72-.82-1.56-1.52-2.64-2.56-.18.88-.33,1.31-.34,1.74-.08,3.09-.2,6.19-.19,9.28.02,5.86.13,11.72.17,17.58.04,6.61,0,13.23.06,19.84.02,1.59.32,3.18.48,4.77Z"/>
</svg>