<?xml version="1.0" encoding="UTF-8" standalone="no"?>
<!-- Created with Inkscape (http://www.inkscape.org/) -->

<svg
   version="1.1"
   id="svg1058"
   viewBox="0 0 1920 1080"
   sodipodi:docname="logo5.svg"
   inkscape:version="1.1 (c4e8f9e, 2021-05-24)"
   xmlns:inkscape="http://www.inkscape.org/namespaces/inkscape"
   xmlns:sodipodi="http://sodipodi.sourceforge.net/DTD/sodipodi-0.dtd"
   xmlns="http://www.w3.org/2000/svg"
   xmlns:svg="http://www.w3.org/2000/svg">
  <sodipodi:namedview
     id="namedview870"
     borderopacity="1"
     inkscape:pageshadow="0"
     inkscape:pageopacity="0"
     inkscape:pagecheckerboard="0"
     showgrid="false"
     inkscape:zoom="0.79420286"
     inkscape:cx="1039.407"
     inkscape:cy="611.93433"
     inkscape:window-x="0"
     inkscape:window-y="0"
     inkscape:window-maximized="0"
     inkscape:current-layer="svg1058" />
  <defs
     id="defs1062" />
  <path
     style="fill:#ffb380"
     d="m 712.02641,689.45371 -3.31692,-2.691 c -1.36273,-1.10557 -3.46535,-3.08207 -3.93895,-3.10037 -2.03408,-0.079 -31.70907,-20.16573 -36.36539,-24.72393 -0.59021,-0.5778 -3.81557,-3.1332 -5.97344,-4.7832 -11.06054,-8.4574 -32.44597,-41.09055 -42.92068,-55.92395 -1.1,-1.5578 -9.69596,-1.25258 -10.86144,-2.69598 -6.73442,-8.3401 -20.83639,-32.2514 -28.29943,-47.8916 -7.28043,-15.2574 -5.72677,-15.38127 -5.0313,-18.85857 0.33619,-1.681 4.439,-8.56846 10.9084,-17.39506 6.4694,-8.8266 12.66255,-17.06997 13.76255,-18.61727 17.35069,-24.4046 16.10945,-25.48643 21.19829,-25.46233 4.61435,0.022 0.66721,-2.149 31.298,22.2914 9.83749,7.8493 21.36212,16.78786 25.6103,20.16186 8.27293,6.5705 9.15123,9.51557 7.45542,13.95137 -1.41124,3.6914 -1.99446,3.84633 -19.17938,12.64673 -8.8,4.5065 -16.09518,9.2506 -16.51002,9.6468 0,0 12.09286,10.56755 28.51257,18.7814 l 34.1515,17.08407 6.01583,-11.4287 c 10.90679,-20.72037 23.26967,-38.06087 40.74939,-46.69237 4.06748,-2.0085 12.43779,-5.235 14.69691,-5.2515 3.62986,-0.026 11.31631,-3.30986 12.47775,-10.79556 1.8137,-11.6896 6.6646,-32.89887 10.37655,-35.97957 0.77146,-0.6402 4.33345,-2.77497 4.33345,-3.25137 0,-2.1541 4.81042,-10.1821 11.08328,-14.4819 16.95934,-11.6249 41.77241,-17.3427 64.79203,-12.1277 27.8369,6.3064 46.0627,23.94367 54.181,55.80417 20.6114,129.0415 -220.59212,197.16383 -219.20627,191.78413 z m 57.81143,-22.32433 c 11.93384,-4.8468 25.15127,-14.3638 39.27596,-28.2801 7.11207,-7.0071 14.23446,-14.4902 15.82754,-16.6291 1.59307,-2.139 3.36332,-4.389 3.93392,-5 2.1329,-2.2843 5.4626,-8.407 5.4626,-10.0449 0,-0.9337 -2.55055,-5.69467 -3.11845,-6.75587 -0.9254,-1.7291 -0.76777,1.60541 -7.48424,9.61051 -9.50276,11.3261 -26.36269,24.43645 -35.59696,30.82005 -15.01445,10.3795 -23.93297,13.93924 -36.30037,13.96124 -9.55451,0.017 -14.41274,-2.89453 -22.90387,-9.31923 -5.04881,-3.8202 -12.98882,-11.47901 -12.98882,-13.02631 0,-0.3603 -0.17795,-3.04642 -1.35146,-4.69452 -1.17351,-1.648 -1.4618,-5.67386 -4.50752,-8.09002 l -2.23512,-11.19775 -2.92905,13.1257 c -4.38409,19.64606 15.45193,39.1856 33.14604,46.637 5.03587,2.1207 6.97823,2.385 15.2698,2.0781 7.5851,-0.2809 10.91098,-0.9248 16.5,-3.1948 z m -61.48679,-64.7701 -1.64513,-7.81419 -14.56439,-8.02595 c -7.04981,-3.88492 -22.54089,-11.31167 -34.20198,-17.23947 -11.6611,-5.9278 -24.12887,-12.92736 -28.02486,-14.91706 -6.57896,-3.36 -7.93452,-3.4894 -8.83022,-1.8158 -1.59896,2.9877 -1.87688,9.80177 0.50341,12.52397 1.68885,1.9315 82.96531,42.6985 86.26317,43.4126 0.31941,0.069 3.93768,-6.1241 0.5,-6.1241 z m 18.27483,-1.4058 c 1.62007,-5.0994 7.95428,-18.8331 10.99744,-23.8444 5.6266,-9.2655 16.91527,-21.2792 23.71452,-25.2375 5.6726,-3.3024 15.42751,-6.4382 18.93783,-6.0878 2.94069,0.2935 3.48997,0.8936 5.61646,6.1362 5.02848,12.397 16.514,24.6296 27.94571,29.7634 10.44555,4.6909 30.41402,6.324 40.56854,3.3177 14.4038,-4.2643 31.9315,-19.7517 31.9315,-28.2146 0,-6.4897 -1.99372,-7.67482 -7.09732,-1.94862 -6.3752,7.1528 -13.9368,11.17907 -23.002,14.37717 -10.05942,3.5489 -24.53627,2.12922 -35.13999,-1.23008 -8.6006,-2.7248 -14.33976,-6.70054 -19.14479,-11.43184 -5.50501,-5.4205 -10.99783,-16.99012 -13.06585,-22.86572 -2.13158,-6.0561 -7.94474,-3.96113 -16.47383,-1.02673 -9.06544,3.119 -13.79943,6.6392 -21.13528,13.5595 -10.66857,10.0642 -17.65129,24.19162 -23.70412,41.38892 -3.12064,8.8664 -5.03366,19.0099 -3.5807,18.9863 0.46411,-0.01 1.64846,-2.5465 2.63188,-5.6419 z m -112.48402,-90.5944 c 3.96675,-5.3625 7.54611,-9.7489 7.95413,-9.7476 0.40802,0.001 7.21199,5.1763 15.11994,11.5 7.90795,6.3237 16.75295,13.84418 16.75295,13.84418 0.15895,0 3.21242,0.32489 4.80816,-2.0489 l 8.69085,-2.83109 -6.85795,-6.86383 c -1.62084,-1.3373 -2.82293,-2.48134 -3.62732,-3.17964 -0.80439,-0.6983 -4.32231,-2.31847 -6.54292,-3.91907 -2.22061,-1.6006 -3.48028,-4.48895 -3.75528,-4.82535 -0.275,-0.3363 -3.65,-2.27341 -7.5,-5.26071 -3.85,-2.9873 -8.38573,-6.23237 -9.76073,-7.52987 -5.18095,-4.8888 -11.37772,-6.38077 -25.70522,18.56859 l -13.4262,23.37989 3.3364,6.9965 v 0 l 6.65045,-9.1665 c 3.65775,-5.0416 9.89598,-13.5541 13.86274,-18.9166 z m 300.85832,12 c -0.2774,-0.6875 -0.5044,-0.125 -0.5044,1.25 0,1.375 2.76959,-10.55685 3.04699,-11.24435 0.2774,-0.6875 -2.26519,10.68185 -2.54259,9.99435 z m 1.8382,-18.96843 c -5.4053,-25.8845 -23.8924,-42.95675 -45.5358,-47.21485 -8.7727,-1.7259 -30.93234,-0.14234 -38.34654,2.39776 -17.02778,5.8337 -29.76906,23.48849 -33.39527,44.28269 -1.67553,9.6083 -0.51046,11.37373 0.3604,10.50283 0.32084,-0.3208 0.54922,-0.8445 0.50753,-1.1638 -0.22739,-1.7413 5.29189,-14.2817 8.48669,-19.2827 4.84856,-7.5897 6.81696,-9.6647 13.42245,-14.1491 7.40682,-5.0285 9.68542,-5.9149 19.68902,-7.6594 36.30262,-6.3306 64.72655,5.10547 72.54445,37.49217 2.5407,10.5253 4.75447,6.7057 2.26707,-5.2056 z m 38.72868,14.29894 c 0.8926,-10.227 2.63589,-20.4199 5.99359,-30.1433 6.9707,-20.1853 13.98904,-30.79497 31.32502,-39.04557 12.26733,-5.8383 20.71033,-7.6097 36.22623,-7.6007 28.0792,0.6436 48.921,8.62658 62.8061,31.44988 5.348,9.002 9.7117,26.58274 12.4712,34.65268 l 2.2103,6.4639 7.1793,3.57533 c 20.5706,10.24426 40.799,22.15718 53.8536,49.53968 2.5173,5.2802 6.7055,9.47169 6.7055,10.02379 0,0.5521 -0.3364,2.46866 -0.1081,2.46866 0.2282,0 9.3554,-2.57402 17.5147,-6.76772 8.1592,-4.1937 21.3004,-11.81998 29.4129,-15.89958 8.1125,-4.0795 16.9473,-9.66509 16.9473,-10.11039 0,-0.4453 -5.1302,-4.63565 -8.8427,-6.37055 -3.7125,-1.7349 -9.162,-4.959 -11.087,-6.0138 -1.925,-1.0547 -2.3389,-1.08854 -3.9889,-1.86544 -11.407,-5.3711 -11.8987,-6.61808 -11.8523,-11.92598 0.037,-4.2302 -2.4774,-3.14048 3.6199,-7.82688 2.475,-1.9023 3.6787,-4.54766 3.9537,-4.85556 0.275,-0.3078 3.2732,-1.92587 6.0232,-4.10727 2.75,-2.1813 5.3296,-3.8982 5.6046,-4.1988 0.275,-0.3007 3.6343,-2.87173 7.2093,-5.58563 3.575,-2.7139 12.0264,-10.1105 18.9089,-15.6695 6.8825,-5.559 12.0257,-9.89767 13.2195,-10.53657 2.7063,-1.4484 5.2471,-2.01116 8.2494,-0.62216 2.0342,0.941 9.3987,10.35613 15.9785,20.12633 1.27,1.8858 8.6714,11.97757 16.0639,22.17017 9.6656,13.327 12.3944,19.0072 12.3944,21.0271 0,9.0432 -23.4497,49.07311 -41.4526,72.84531 -26.0701,34.4247 -52.7319,56.27868 -87.0793,77.20618 -32.7549,10.1619 -214.61074,-7.18891 -229.46014,-162.40361 z m 192.14584,150.19209 c 7.2081,-3.2097 7.3263,-3.2927 13.9804,-9.8161 7.0637,-6.925 9.1946,-9.6259 11.9752,-15.1783 3.6206,-7.2299 5.5884,-14.078 6.1143,-21.2782 l -0.047,-12.75754 -5.297,12.43855 c -5.5139,12.94775 -13.7951,23.94593 -24.8012,28.81653 -17.2584,7.6376 -33.2415,5.28501 -56.0853,-13.21559 -9.0016,-7.2901 -29.0378,-24.52894 -29.0378,-26.06414 2.1767,-1.8769 0.5236,0 0,0 -0.5235,0 -2.0845,-3.06793 -3.7873,-5.54293 -3.4523,-5.0178 -9.0469,-3.88798 -9.9607,-0.24708 -0.9181,3.6578 0.1563,5.9156 6.8301,14.3543 13.0928,16.5552 33.2982,34.6685 48.1541,43.1682 14.7714,8.4513 30.4649,10.4418 41.962,5.3223 z m 16.3172,-74.28423 c -5.4252,-19.8131 -20.6721,-43.22001 -34.4034,-54.29341 -6.3616,-5.1303 -27.6981,-11.0877 -29.5743,-8.9061 -0.3988,0.4637 -1.6743,4.76649 -2.8344,7.64959 -7.2168,17.9355 -20.3675,26.96579 -39.9079,30.47409 -20.7937,3.7333 -36.779,-0.91779 -48.9667,-16.08379 -2.4994,-3.1102 -5.6038,-7.95829 -6.2506,-6.93749 -4.184,6.6024 4.8222,28.40684 19.7752,35.90434 8.2771,4.1502 15.1047,5.4627 25.357,4.8746 5.2871,-0.3033 11.9735,-1.0007 14.8586,-1.5499 14.6313,-2.7848 30.3206,-16.8572 36.899,-33.0961 1.9687,-4.8599 2.611,-5.5623 5.3412,-5.8409 4.1032,-0.4187 14.3964,3.0823 20.0063,6.8048 14.1265,9.3735 27.7515,28.9273 34.1313,48.983 2.2553,7.0901 6.564,8.32412 6.8586,4.79202 0.1707,-2.0471 -0.1229,-8.51265 -1.2899,-12.77475 z m 70.5758,-12.28217 c 14.1724,-7.1582 26.8849,-14.1319 28.25,-15.4969 2.6389,-2.6389 1.8917,-12.74616 -0.1322,-14.77006 -0.7331,-0.7331 -5.8276,2.88565 -17.4893,8.97725 -9.1851,4.7979 -28.2652,12.61134 -41.4502,20.36608 l -24.2285,14.24998 -0.7822,7.35995 c -0.3065,2.88456 1.8377,5.5475 2.1717,5.8815 0.334,0.334 6.7465,-2.5788 14.25,-6.4728 7.5035,-3.894 25.2383,-12.9368 39.4107,-20.095 z m 61.5037,-45.55605 c 1.0166,-2.9164 2.3241,-5.99707 -1.8526,-12.10987 -2.484,-3.6355 -4.8525,-7.38994 -6.2193,-8.98064 -1.3669,-1.5907 -3.7893,-2.89897 -3.79,-3.22587 -7e-4,-0.327 -0.7525,-3.61762 -1.9893,-5.08192 -1.2368,-1.4643 -5.572,-5.81548 -8.8562,-10.9332 l -7.6504,-11.92124 -12.1072,6.71042 c -25.6085,14.19358 -31.907,25.72643 -31.4853,26.40883 0.2611,0.4224 3.0525,6.27086 5.2471,7.26056 4.6159,2.0814 4.3563,1.36708 20.5571,-11.80652 5.4309,-4.4161 11.1993,-8.8713 12.8186,-9.9003 2.9295,-1.8617 2.952,-1.8594 4.4911,0.4587 0.8508,1.2814 3.5768,5.0615 6.0577,8.4003 2.481,3.3389 7.8151,10.6831 11.8535,16.3206 4.0385,5.6375 10.5741,12.85731 11.0183,12.85731 0.4441,0 1.3022,-2.72276 1.9069,-4.45716 z M 974.09488,508.35908 c 2.8619,-9.6167 9.9327,-21.4354 15.6048,-26.0833 11.25322,-9.2211 25.40572,-13.3131 42.63822,-12.3283 5.775,0.33 12.8092,1.2341 15.6316,2.0091 16.1792,4.4425 28.136,16.245 34.0926,33.6525 l 5.6137,7.54292 0.026,-4.5321 c 0.014,-2.49259 -1.1767,-8.29625 -2.009,-11.30365 -0.8323,-3.0073 -0.9158,-7.51506 -1.1416,-8.42376 -1.17,-4.71 -10.9128,-17.83035 -15.7222,-22.04435 -1.0088,-0.8839 -5.1554,-4.01859 -6.3466,-5.05399 -3.4732,-3.019 -13.9202,-5.95983 -20.7081,-7.06133 -8.0402,-1.3048 -22.9107,0.24118 -29.8534,1.52838 -12.11015,2.2455 -26.10396,11.80103 -32.95886,22.54413 -5.4855,8.597 -5.91692,18.38908 -8.54232,33.81438 -0.9994,5.8721 1.47416,3.13557 3.67536,-4.26073 z"
     id="path1835"
     sodipodi:nodetypes="cssssssssssssssssscssssssssccssssssssssssscssssscssssssscsssssssssssssssscsscssscssssssscccssssssssssssssssccssccscssssssssssssssssssssssscsscssssscsssssssssssssssscssssscsssssssscsssssssssscsssssssssssssssccscssss" />
  <g
     id="g3561"
     transform="translate(21.1419,25.96408)">
    <g
       id="g1064"
       style="fill:#ff7f2a">
      <path
         style="fill:#ff7f2a"
         d="m 815.27278,808.16764 c -18.8668,-4.42573 -36.0779,-16.30697 -47.8781,-33.05151 l -5.4479,-7.73061 -8.2819,-0.56443 c -15.9224,-1.08515 -31.2259,-8.28093 -43.7318,-20.5628 -9.0457,-8.88377 -12.7904,-14.1702 -18.0528,-25.48536 -7.4086,-15.9301 -8.4505,-31.09936 -3.3551,-48.84852 0.8961,-3.12137 1.3775,-6.3312 1.0699,-7.13295 -0.3077,-0.80176 -3.1813,-2.93872 -6.3857,-4.7488 -27.5104,-15.5396 -55.51606,-39.41053 -80.35053,-68.48759 -9.38496,-10.98823 -25.21262,-33.98093 -33.8459,-49.16763 -8.5528,-15.04511 -17.12989,-33.90605 -17.12989,-37.66844 0,-2.8401 3.34749,-8.03862 20.13124,-31.26296 11.07218,-15.32103 21.28138,-29.09391 22.68709,-30.60641 2.99747,-3.22516 7.44758,-3.63955 11.20916,-1.04379 1.35988,0.93841 12.37251,9.59424 24.47251,19.23517 12.10002,9.64094 23.96662,19.0365 26.37032,20.87903 10.9601,8.40144 12.6077,10.89185 10.8381,16.38222 -0.9901,3.0719 -3.1198,4.41323 -23.4584,14.77434 -7.83752,3.99266 -14.24584,7.7687 -14.24074,8.39121 0.0125,1.52224 60.57524,32.00665 61.92704,31.17115 0.585,-0.36155 1.0637,-1.11494 1.0637,-1.67419 0,-2.13778 10.228,-21.43238 14.7097,-27.74913 12.7687,-17.99686 26.1663,-27.86212 44.0516,-32.43716 l 8.6066,-2.20155 1.3152,-7.98865 c 0.7234,-4.39376 2.7005,-12.03865 4.3936,-16.98865 11.5224,-33.68703 34.6107,-49.76305 71.4233,-49.73091 14.7076,0.0128 24.238,1.94601 35,7.09947 22.1329,10.59856 34.7358,29.53625 40.1899,60.39119 1.6781,9.49373 1.8101,18.76967 1.8101,127.24025 0,95.13596 -0.2576,118.39713 -1.3786,124.47638 -6.7563,36.64232 -31.9951,66.45797 -63.0733,74.51115 -9.9911,2.58894 -25.0231,2.84071 -34.6584,0.58048 z m 27.8111,-16.1581 c 17.6391,-3.62851 35.711,-18.63665 45.0466,-37.40991 6.1726,-12.41266 9.6439,-27.47897 7.8578,-34.10542 -1.7212,-6.38575 -7.2677,-14.57035 -12.6052,-18.60081 -8.8289,-6.66683 -25.0224,-11.78729 -37.3154,-11.79935 -7.2955,-0.007 -12.8899,-1.57517 -14.1729,-3.97243 -1.9618,-3.66566 -1.2127,-8.71873 1.6231,-10.94941 6.1273,-4.81968 34.2329,-0.7925 49.7631,7.13043 4.4436,2.26695 9.7458,5.80733 10.7364,7.16887 2.6153,3.59462 2.8903,-1.72861 3.1328,-60.63742 0.1376,-33.41793 0,-61.46121 -0.2966,-62.3184 -0.4042,-1.15245 -1.8712,-0.0418 -5.6301,4.2627 -19.2776,22.07575 -46.1642,44.95433 -69.504,59.14298 -10.1713,6.1833 -32.0649,17.23713 -44.3364,22.38497 -24.4786,10.26861 -58.0639,20.16912 -66.4805,19.59756 -4.4137,-0.29974 -4.5014,-0.24471 -5.8893,3.69573 -1.9602,5.56496 -2.6002,20.91913 -1.161,27.85168 2.9445,14.18373 15.3522,31.34223 28.1514,38.9304 7.3286,4.34484 30.8216,8.44432 32.2348,7.03107 0.5726,-0.57261 12.4252,-10.517 19.2107,-16.60272 4.1133,-3.68907 9.7115,-6.49115 9.7115,-6.49115 0,0 3.222,-2.43899 11.2019,-2.43875 7.5035,2.3e-4 18.6277,5.5461 27.362,9.70205 0.5546,0.26388 1.0995,0.52216 1.6333,0.77306 12.223,5.74537 10.8678,17.21063 5.2382,19.01824 -5.4706,1.75655 -12.412,-4.37041 -18.0645,-7.91508 -5.1614,-3.2367 -11.572,-5.46624 -12.2824,-5.66005 -13.418,-3.66096 -31.2631,25.23477 -16.756,37.1081 7.2322,5.91919 18.5206,12.78751 26.5726,14.73628 6.6923,1.61971 18.1136,1.78722 25.0181,0.36692 z M 731.75518,649.13658 c 24.9081,-7.19667 52.8005,-18.82908 73.5696,-30.68191 31.1386,-17.77064 62.4966,-45.58365 86.3891,-76.62295 l 4.3307,-5.62621 0.1693,-25.80294 c 0.159,-24.24882 0.027,-26.34501 -2.201,-34.80294 -6.035,-22.91531 -18.7392,-37.45129 -37.1097,-42.46044 -9.0818,-2.47636 -27.0017,-2.75041 -37.2899,-0.57028 -11.426,2.42121 -22.6246,9.79259 -29.2483,19.25239 -5.2217,7.45738 -9.5465,19.69896 -10.887,30.81602 -0.689,5.71345 1.9705,17.53153 5.8866,26.15881 7.5654,16.6666 28.6354,25.0576 46.8755,18.66785 5.478,-1.91898 13.1044,-7.78738 16.7901,-12.91969 3.9829,-5.54611 8.1899,-7.16634 13.1866,-5.07857 4.0445,1.68989 5.6663,4.17939 5.6663,8.69799 0,3.19091 -2.8455,6.8322 -13,16.63587 -5.5587,5.36656 -18.2133,11.06957 -27.182,12.24996 -13.2779,1.74753 -27.2847,-0.93108 -38.1427,-7.29428 -9.1859,-5.38329 -18.5943,-16.9143 -22.769,-27.90563 -2.4653,-6.49086 -3.6131,-6.90816 -11.9063,-4.32872 -12.2942,3.82387 -21.3929,10.28795 -30.2533,21.49322 -9.8273,12.428 -19.6332,34.00946 -21.2975,46.87278 -1.4194,10.97134 9.8217,30.0626 21.235,36.06415 3.0782,1.61861 12.2595,1.42682 17.4401,-0.36429 14.6826,-5.07637 33.232,-20.38745 51.9075,-42.84577 l 7.3665,-8.85862 4.1735,0.57204 c 6.7018,0.91859 9.3183,2.54268 10.0065,6.21121 0.662,3.52878 -0.1763,5.86961 -1.5959,5.86961 -0.4856,0 -4.1678,5.49875 -8.1826,10.30741 -33.6073,40.25178 -65.4492,56.36309 -89.2673,45.16728 -8.4056,-3.9511 -19.7318,-15.52012 -24.6843,-25.21338 -3.4259,-6.70542 -6.1099,-19.54542 -5.4037,-25.85118 0.7805,-6.97066 1.7484,-6.18987 -23.1523,-18.6771 -32.65231,-16.37455 -57.73624,-29.36561 -60.54222,-31.35506 -2.18004,-1.54566 -2.75,-2.74173 -2.75,-5.77089 0,-2.20724 0.73913,-4.66955 1.75,-5.82991 1.93106,-2.21663 28.4933,-16.21278 30.76902,-16.21278 2.29682,0 10.481,-4.29542 10.481,-5.50089 0,-0.6063 -5.6773,-5.57913 -12.61624,-11.05074 -6.93892,-5.4716 -15.82642,-12.52386 -19.75,-15.67169 -6.71004,-5.38336 -9.63378,-6.88147 -9.63378,-4.93629 0,0.46222 -6.1875,9.35771 -13.75,19.76776 -18.84883,25.94609 -17.49546,23.56013 -15.74297,27.75443 0.80447,1.92536 1.88271,3.76026 2.3961,4.07755 0.51339,0.3173 3.29024,4.96057 6.17078,10.31838 29.1036,54.13286 69.38331,96.28679 117.90311,123.3892 12.9733,7.2467 14.9678,7.35787 33.8951,1.88924 z m -2.9382,-226.86388 c -2.4516,-1.55481 -8.3469,-7.06731 -13.1005,-12.25 -4.7536,-5.18269 -13.7483,-14.96282 -19.9882,-21.73363 -14.0211,-15.21411 -17.7112,-19.80729 -18.5282,-23.06255 -1.3628,-5.42973 7.4764,-23.08501 15.4253,-30.81052 10.3564,-10.06522 25.3484,-8.99037 36.9908,2.65205 6.2803,6.28029 8.6369,11.97065 9.2479,22.33078 l 0.519,8.79921 6.6457,2.31777 c 12.6458,4.41031 22.7997,11.48663 25.2313,17.58382 1.6692,4.18575 0.7904,7.18896 -2.7903,9.53516 -3.6807,2.41166 -8.7832,1.20475 -21.6928,-5.13108 -6.0561,-2.97224 -11.3664,-5.40408 -11.8007,-5.40408 -0.4342,0 -1.5958,1.78816 -2.5814,3.97369 l -1.7918,3.97369 4.054,5.36955 c 5.131,6.79591 8.0509,12.2326 8.8459,16.47076 0.4937,2.6314 0.1451,3.83349 -1.6725,5.76823 -3.0828,3.28155 -7.4373,3.15344 -13.0135,-0.38285 z m -10.5361,-58.89469 c 0.026,-4.42253 -0.4133,-5.68505 -2.8706,-8.25 -1.5958,-1.66561 -3.6565,-3.02838 -4.5794,-3.02838 -2.4583,0 -6.4305,3.44758 -8.2132,7.12845 l -1.5553,3.21137 6.6604,7.37376 6.6603,7.37376 1.9335,-4.29367 c 1.0929,-2.42699 1.9469,-6.56378 1.9643,-9.51529 z m 398.50852,27.41518 c 5.3956,-1.89057 7.0252,-5.10448 9.2158,-18.17559 1.089,-6.49817 2.6227,-13.05756 3.4081,-14.57642 4.4636,-8.63165 19.8611,-14.05577 33.6132,-11.84106 7.8309,1.26114 13.4253,4.14414 15.8921,8.18985 2.357,3.86564 2.4489,5.87226 0.4463,9.74483 -2.012,3.89079 -5.0548,4.49915 -15.059,3.01078 -9.4539,-1.4065 -13.6278,-0.58554 -17.3914,3.42064 -1.9174,2.04094 -2.3773,3.99284 -3.0137,12.78882 -5.1018,44.12779 -92.6952,28.76659 -27.1114,7.43815 z m -344.40632,-8.65305 c -3.1527,-1.31263 -6.775,-5.66804 -15.0039,-18.04051 -16.7281,-25.1512 -24.9379,-48.07633 -19.9535,-55.71799 4.9936,-7.65564 22.4907,-23.35531 27.3983,-24.58367 4.9784,-1.24608 11.0591,3.78909 11.0591,9.15754 0,2.14676 -5.38,11.2299 -12.192,20.58374 l -5.0537,6.93962 1.6739,5.31038 c 0.9207,2.92071 2.101,5.31038 2.6229,5.31038 0.5219,0 0.9489,-0.34523 0.9489,-0.76718 0,-1.78602 9.2185,-11.10862 12.5459,-12.68757 4.6457,-2.20452 8.6448,-0.77044 10.8581,3.89369 2.4242,5.1086 -0.3766,11.4933 -10.0855,22.99106 -3.9859,4.72034 -4.071,5.8767 -0.7816,10.62324 l 2.5369,3.66074 9.2362,-9.35699 c 7.04,-7.13212 9.8663,-9.35699 11.8863,-9.35699 3.2968,0 8.3731,4.1481 9.2236,7.53706 1.7578,7.00365 -15.9655,32.13121 -24.2951,34.44493 -4.2961,1.1933 -9.8376,1.21899 -12.6248,0.0585 z m 278.50002,-4.04051 c -2.9617,-2.96172 -2.5697,-8.54039 1.1187,-15.9216 5.0328,-10.07153 34.09,-52.17858 40.217,-58.27871 1.3418,-1.33593 2.8282,-1.58134 6.936,-1.14517 23.2834,2.47224 35.7283,12.411 35.7283,28.53336 0,12.96641 -10.0836,24.96711 -24.76,29.46729 -7.137,2.18842 -19.1124,1.9372 -24.6613,-0.51735 l -4.5667,-2.02007 -2.7333,3.69113 c -4.7508,6.41587 -9.9685,12.16316 -13.8239,15.22703 -4.5668,3.62922 -10.3736,4.0453 -13.4548,0.96409 z m 58.6206,-39.34526 c 4.5709,-5.31404 2.1166,-10.01174 -5.9112,-11.31448 -2.8413,-0.46107 -3.6144,-0.21484 -4.0967,1.30467 -0.327,1.03015 -2.1282,4.20184 -4.0027,7.04821 -1.8746,2.84636 -3.1162,5.47194 -2.7592,5.83461 0.3571,0.36268 3.741,0.48702 7.5198,0.27633 6.0219,-0.33577 7.1644,-0.72474 9.25,-3.14934 z m -279.12062,21.46235 c -10.4957,-2.70492 -19.1829,-10.62871 -25.3715,-23.1418 -5.6069,-11.33723 -7.1076,-17.31198 -7.7797,-30.97529 -0.8082,-16.42964 2.0115,-27.33259 9.3125,-36.0094 3.4069,-4.0488 11.5723,-7.9678 16.6285,-7.9808 11.1216,-0.029 23.4543,14.67056 24.5266,29.23308 0.5128,6.96378 -1.1517,10.0526 -6.3398,11.76484 -5.8351,1.92577 -8.8343,0.0476 -12.5694,-7.87129 -1.7216,-3.65004 -3.601,-6.93191 -4.1766,-7.29304 -1.8456,-1.15804 -5.5982,1.33796 -6.6808,4.44367 -3.8486,11.04 3.6347,40.00011 11.7019,45.28594 3.4877,2.2852 8.2832,1.2989 14.0373,-2.88707 9.2443,-6.72503 13.035,-7.71581 16.4551,-4.30087 1.0078,1.0063 1.2771,-1.8218 1.3633,-14.31551 0.1714,-24.86256 4.6673,-45.447 12.2869,-56.25605 4.2663,-6.0522 8.9468,-8.8135 14.9389,-8.8135 12.3512,0 19.0349,9.1758 27.603,37.89502 5.1783,17.35729 7.5638,29.02729 7.5638,37.00356 0,11.66821 -7.2276,19.23766 -13.799,14.45158 -3.8632,-2.81372 -6.9024,-9.39984 -8.281,-17.94591 -0.6569,-4.07234 -1.374,-7.40425 -1.5934,-7.40425 -0.2194,0 -4.2077,0.95525 -8.8628,2.12279 l -8.4638,2.12278 v 4.69571 c 0,11.1084 -5.4415,21.05872 -11.5163,21.05872 -3.5158,0 -7.4594,-3.61655 -7.5075,-6.88486 -0.013,-0.88833 -1.1171,1.04444 -2.4534,4.29505 -2.7889,6.78366 -8.1689,12.76472 -13.9925,15.55552 -4.6849,2.2451 -12.7254,3.26084 -17.0303,2.15138 z m 66.3499,-64.57628 c 0.5535,-2.87435 -1.8406,-13.60224 -3.9649,-17.76621 -4.4131,-8.6503 -8.7513,-2.62733 -9.633,13.37405 l -0.5346,9.70223 6.8898,-1.73878 c 5.0513,-1.2748 6.984,-2.22777 7.2427,-3.57129 z m 118.75442,63.42076 c -5.2043,-1.55739 -12.6043,-10.63634 -12.6043,-15.46414 0,-3.73604 9.6043,-29.9747 15.0065,-40.99743 9.6052,-19.59841 17.5549,-28.50379 25.4378,-28.49598 9.876,0.01 31.5069,4.73688 34.6367,7.56928 2.3965,2.16879 3.4348,7.59432 1.9754,10.3214 -2.4778,4.62977 -5.534,5.51732 -20.9244,6.07671 l -14.5433,0.52859 -2.7611,4 c -1.5186,2.2 -2.7753,4.45 -2.7926,5 -0.017,0.55 2.4173,1.05763 5.4101,1.12807 12.4312,0.29257 17.5767,2.99245 17.5231,9.19451 -0.066,7.66454 -3.8859,9.58835 -19.4682,9.80539 l -12,0.16714 -1.7484,3.35244 c -3.5099,6.72968 -3.2314,6.91335 12.7484,8.40799 8.2674,0.77328 12.2152,2.56527 13.5843,6.16608 2.4557,6.45918 -1.617,11.56827 -10.518,13.19437 -6.9421,1.26824 -24.7824,1.29632 -28.962,0.0456 z m -83.37542,-15.63086 c -0.699,-0.28127 -2.049,-1.93325 -3,-3.67106 -1.3681,-2.50033 -1.704,-5.45499 -1.6094,-14.15965 0.1223,-11.25383 3.2099,-40.1116 6.2057,-58 l 1.6748,-10 5.5,-2.6632 c 7.2812,-3.5258 19.9741,-6.1034 25.8974,-5.259 9.6885,1.381 17.7963,8.0865 20.944,17.3214 1.8109,5.31316 1.4037,14.37076 -0.9262,20.59787 -4.3555,11.64122 -18.9878,23.13088 -30.9174,24.27716 -4.8061,0.46181 -4.9714,0.58437 -5.5331,4.1009 -2.3104,14.46628 -5.7015,23.77647 -9.6738,26.55879 -2.1796,1.52664 -6.0016,1.92695 -8.562,0.89679 z m 31.3852,-56.84998 c 4.0555,-3.09324 5.2101,-7.57394 2.8714,-11.14319 -1.5374,-2.34636 -2.1104,-2.52374 -6.298,-1.94977 -2.5337,0.34729 -4.9171,0.96461 -5.2964,1.37183 -0.3794,0.40722 -1.0093,4.47949 -1.3998,9.04949 l -0.7099,8.3091 3.8054,-1.59004 c 2.0931,-0.87451 5.2553,-2.69586 7.0273,-4.04742 z m 37.05262,-1.1474 c -1.34832,-1.34829 -0.5116,-3.91972 2.3739,-7.29556 3.4578,-4.04537 3.6909,-5.04183 1.0158,-4.34227 -1.2502,0.32693 -2.8954,-0.44361 -4.61172,-2.15991 -2.1701,-2.17009 -2.5534,-3.26249 -2.0534,-5.85189 1.5112,-7.8266 12.24402,-9.2207 17.83652,-2.3167 3.542,4.3728 1.0241,11.38081 -6.6212,18.42795 -4.3736,4.03145 -6.4995,4.97884 -7.9399,3.53838 z"
         id="path2163"
         sodipodi:nodetypes="sscssssscssssssssssssssscsssssscsssssssssssscssssssssscssssscssssssscscssssssssssssssssssscssscssssssssssssssssssssssssscsssssccsssssssscccsscsssssssccsssssscssssssscssssssssssssscsssssssssssssscsssscsssssssssssscssssssssscssssssssscscscscsssssssssscssssscssssssscssssssssss" />
    </g>
    <g
       id="g8556"
       transform="matrix(-1,0,0,1,2332.1285,36.49342)"
       style="display:inline;fill:#ff7f2a">
      <path
         style="fill:#ff7f2a"
         d="m 1301.6927,770.59969 c -18.8668,-4.42574 -36.0779,-16.30697 -47.8781,-33.05151 l -5.4479,-7.73061 -8.2819,-0.56443 c -15.9224,-1.08515 -31.2259,-8.28093 -43.7318,-20.56281 -9.0457,-8.88377 -12.7904,-14.1702 -18.0528,-25.48536 -7.4086,-15.9301 -8.4506,-31.09936 -3.3551,-48.84852 0.8961,-3.12136 1.3775,-6.33119 1.0699,-7.13295 -0.3077,-0.80176 -3.1813,-2.93872 -6.3857,-4.7488 -27.5105,-15.53959 -55.5161,-39.41053 -80.3506,-68.48758 -9.3849,-10.98824 -25.2126,-33.98094 -33.8459,-49.16764 -8.5528,-15.04511 -17.1299,-33.90605 -17.1299,-37.66844 0,-2.8401 3.3475,-8.03861 20.1313,-31.26296 11.0721,-15.32103 21.2813,-29.09391 22.6871,-30.60641 2.9974,-3.22516 7.4475,-3.63954 11.2091,-1.04379 1.3599,0.93841 12.3725,9.59425 24.4725,19.23517 12.1001,9.64094 23.9667,19.0365 26.3703,20.87903 10.9601,8.40144 12.6077,10.89185 10.8382,16.38222 -0.9901,3.07191 -3.1199,4.41323 -23.4584,14.77434 -7.8376,3.99266 -14.2459,7.7687 -14.2408,8.39121 0.012,1.52225 60.5753,32.00666 61.9271,31.17116 0.585,-0.36155 1.0637,-1.11495 1.0637,-1.67419 0,-2.13778 10.228,-21.43238 14.7097,-27.74913 12.7687,-17.99687 26.1663,-27.86212 44.0516,-32.43716 l 8.6066,-2.20155 1.3152,-7.98865 c 0.7234,-4.39376 2.7005,-12.03866 4.3936,-16.98866 11.5224,-33.68702 34.6107,-49.76305 71.4233,-49.73091 14.7076,0.0128 24.238,1.94602 35,7.09947 22.1329,10.59857 34.7358,29.53625 40.1899,60.39119 1.6781,9.49374 1.8101,18.76968 1.8101,127.24025 0,95.13596 -0.2576,118.39713 -1.3786,124.47639 -6.7563,36.64232 -31.9951,66.45797 -63.0733,74.51115 -9.9911,2.58894 -25.0231,2.8407 -34.6584,0.58048 z m 27.8111,-16.1581 c 17.6391,-3.62851 35.711,-18.63666 45.0466,-37.40991 6.1726,-12.41266 9.6439,-27.47897 7.8578,-34.10542 -1.7212,-6.38575 -7.2677,-14.57035 -12.6052,-18.60081 -8.8289,-6.66683 -25.0224,-11.78729 -37.3154,-11.79935 -7.2955,-0.007 -12.8899,-1.57517 -14.1729,-3.97243 -1.9618,-3.66566 -1.2127,-8.71874 1.6231,-10.94942 6.1273,-4.81967 34.2329,-0.7925 49.7631,7.13044 4.4436,2.26694 9.7458,5.80732 10.7364,7.16886 2.6153,3.59462 2.8903,-1.72861 3.1328,-60.63742 0.1376,-33.41793 0,-61.46121 -0.2966,-62.3184 -0.4042,-1.15245 -1.8712,-0.0418 -5.6301,4.2627 -19.2776,22.07575 -46.1642,44.95433 -69.504,59.14298 -10.1713,6.1833 -32.0649,17.23713 -44.3364,22.38497 -24.4786,10.26861 -58.0639,20.16912 -66.4805,19.59756 -4.4137,-0.29974 -4.5014,-0.24471 -5.8893,3.69573 -1.9602,5.56496 -2.6002,20.91913 -1.161,27.85168 2.9445,14.18373 15.3522,31.34223 28.1514,38.9304 7.3286,4.34484 30.8216,8.44432 32.2348,7.03107 0.5725,-0.57261 12.4252,-10.517 19.2107,-16.60272 4.1133,-3.68907 9.7115,-6.49115 9.7115,-6.49115 0,0 3.2219,-2.43899 11.2019,-2.43875 7.5035,2.3e-4 18.6277,5.5461 27.362,9.70205 0.5546,0.26388 1.0995,0.52216 1.6333,0.77306 12.223,5.74537 10.8678,17.21063 5.2382,19.01824 -5.4707,1.75655 -12.412,-4.37041 -18.0645,-7.91508 -5.1614,-3.2367 -11.572,-5.46624 -12.2824,-5.66005 -13.4181,-3.66096 -31.2632,25.23477 -16.7561,37.1081 7.2323,5.91919 18.5207,12.78751 26.5726,14.73628 6.6924,1.61972 18.1137,1.78723 25.0181,0.36693 z M 1218.1751,611.56862 c 24.9081,-7.19667 52.8004,-18.82907 73.5696,-30.68191 31.1386,-17.77063 62.4966,-45.58365 86.3891,-76.62295 l 4.3307,-5.62621 0.1693,-25.80294 c 0.159,-24.24882 0.027,-26.34501 -2.201,-34.80294 -6.035,-22.91531 -18.7392,-37.45129 -37.1097,-42.46044 -9.0818,-2.47636 -27.0017,-2.75041 -37.2899,-0.57028 -11.426,2.42121 -22.6246,9.79259 -29.2483,19.25239 -5.2217,7.45738 -9.5465,19.69896 -10.887,30.81602 -0.689,5.71345 1.9705,17.53153 5.8866,26.15881 7.5654,16.6666 28.6354,25.0576 46.8755,18.66785 5.478,-1.91898 13.1044,-7.78738 16.7901,-12.91969 3.9829,-5.54611 8.1899,-7.16634 13.1866,-5.07857 4.0445,1.68989 5.6663,4.17939 5.6663,8.69799 0,3.19091 -2.8455,6.8322 -13,16.63587 -5.5587,5.36656 -18.2133,11.06957 -27.182,12.24996 -13.2779,1.74753 -27.2847,-0.93108 -38.1427,-7.29428 -9.1859,-5.38329 -18.5943,-16.9143 -22.769,-27.90563 -2.4653,-6.49086 -3.6131,-6.90816 -11.9063,-4.32872 -12.2942,3.82387 -21.3929,10.28795 -30.2533,21.49322 -9.8273,12.428 -19.6332,34.00946 -21.2975,46.87278 -1.4194,10.97135 9.8217,30.0626 21.235,36.06415 3.0782,1.61861 12.2595,1.42683 17.4401,-0.36428 14.6826,-5.07637 33.232,-20.38746 51.9075,-42.84578 l 7.3665,-8.85861 4.1735,0.57204 c 6.7018,0.91859 9.3183,2.54268 10.0065,6.21121 0.662,3.52878 -0.1763,7.434 -1.5959,7.434 -0.4856,0 -4.1678,3.93436 -8.1826,8.74302 -33.6073,40.25178 -65.4492,56.36309 -89.2673,45.16728 -8.4056,-3.9511 -19.7318,-15.52012 -24.6843,-25.21338 -3.4259,-6.70542 -6.1099,-19.54543 -5.4037,-25.85118 0.7805,-6.97066 1.7484,-6.18988 -23.1523,-18.6771 -32.6524,-16.37455 -57.7363,-29.36561 -60.5423,-31.35506 -2.18,-1.54566 -2.75,-2.74173 -2.75,-5.77089 0,-2.20724 0.7392,-4.66955 1.75,-5.82991 1.9311,-2.21664 28.4933,-16.21279 30.7691,-16.21279 2.2968,0 10.481,-4.29541 10.481,-5.50089 0,-0.6063 -5.6773,-5.57913 -12.6163,-11.05074 -6.9389,-5.4716 -15.8264,-12.52386 -19.75,-15.67169 -6.71,-5.38336 -9.6338,-6.88147 -9.6338,-4.93629 0,0.46222 -6.1875,9.35771 -13.75,19.76776 -18.8488,25.94609 -17.4954,23.56013 -15.7429,27.75443 0.8044,1.92536 1.8827,3.76026 2.3961,4.07756 0.5134,0.3173 3.2902,4.96056 6.1707,10.31838 29.1036,54.13286 69.3834,96.28679 117.9032,123.3892 12.9733,7.2467 14.9678,7.35787 33.8951,1.88923 z"
         id="path2163-8" />
    </g>
  </g>
</svg>
