<?xml version="1.0" encoding="UTF-8" standalone="no"?>
<svg
   id="Calque_3"
   viewBox="0 0 95.999995 96.000001"
   version="1.1"
   sodipodi:docname="logo_brut.svg"
   width="96"
   height="96"
   inkscape:version="1.1 (c4e8f9e, 2021-05-24)"
   xmlns:inkscape="http://www.inkscape.org/namespaces/inkscape"
   xmlns:sodipodi="http://sodipodi.sourceforge.net/DTD/sodipodi-0.dtd"
   xmlns="http://www.w3.org/2000/svg"
   xmlns:svg="http://www.w3.org/2000/svg">
  <sodipodi:namedview
     id="namedview885"
     pagecolor="#505050"
     bordercolor="#eeeeee"
     borderopacity="1"
     inkscape:pageshadow="0"
     inkscape:pageopacity="0"
     inkscape:pagecheckerboard="0"
     showgrid="false"
     inkscape:zoom="3.5714983"
     inkscape:cx="35.139314"
     inkscape:cy="72.518585"
     inkscape:window-width="1440"
     inkscape:window-height="900"
     inkscape:window-x="0"
     inkscape:window-y="0"
     inkscape:window-maximized="0"
     inkscape:current-layer="Calque_3"
     showguides="true"
     inkscape:guide-bbox="true"
     units="px">
    <sodipodi:guide
       position="585.91218,4.4491685"
       orientation="1,0"
       id="guide1913" />
  </sodipodi:namedview>
  <defs
     id="defs826">
    <style
       id="style824">
      .cls-1 {
        fill: #fff;
      }

      .cls-2 {
        fill: #fbd2bc;
      }

      .cls-3 {
        fill: #f07f18;
      }

      .cls-4 {
        fill: #fffefe;
      }

      .cls-5 {
        fill: #f07f17;
      }

      .cls-6 {
        fill: #f07f19;
      }
    </style>
  </defs>
  <g
     id="g1843"
     transform="matrix(0.18734156,0,0,0.18734156,-6.8577085,0.90910685)">
    <path
       class="cls-5"
       d="m 450.55,213.53 c -7.41,-14.63 -4.24,-30.29 -5.91,-45.39 -1.41,-12.73 -5.69,-24.48 -11.29,-35.86 -0.78,-1.59 -1.43,-2.1 -3.06,-0.79 -5.1,4.09 -10.94,4.81 -17.1,3.05 -2.75,-0.78 -4.57,-0.1 -5.89,2.44 -6.35,12.18 -24.99,11.16 -34.15,1.1 -2.35,-2.59 -3.32,-5.94 -3.38,-9.33 -0.12,-5.93 -2.41,-10.75 -6.15,-15.22 -5.69,-6.82 -5.78,-9.78 -1.48,-17.44 4.52,-8.07 8.9,-16.22 13.47,-24.26 5.24,-9.21 9.86,-11.44 20.18,-8.96 15.37,3.7 30.68,7.71 45.95,11.81 8.54,2.29 15.57,7.21 20.76,14.32 17.54,24.01 35.2,47.93 52.24,72.29 12.66,18.11 20.41,38.28 21.78,60.59 0.15,2.46 1.08,4.62 2.47,6.61 2,2.88 4.07,5.7 6.01,8.63 5.6,8.46 5.31,15.02 -0.46,23.3 -4.84,6.95 -10.32,13.26 -16.43,19.1 -9.49,9.06 -17.09,19.63 -24.49,30.42 -13.2,19.25 -30.45,33.13 -53.54,38.94 -4.46,1.12 -8.89,1.19 -13.35,0.54 -2.5,-0.36 -4.13,0.27 -5.53,2.53 -2.78,4.46 -6.53,8.12 -11.1,10.73 -2.38,1.36 -3.27,3.15 -3.54,5.71 -0.6,5.73 -1.51,11.44 -3.96,16.71 -6.77,14.61 -17.44,24.21 -34.07,25.77 -3.55,0.33 -5.36,2.45 -7.04,5.23 -8.5,14.05 -20.65,22.79 -37.22,24.4 -16.97,1.64 -31.26,-3.52 -41.71,-17.58 -0.65,-0.87 -1.04,-2.02 -2.27,-2.42 -9.84,15.61 -24.36,21.69 -42.24,20.04 -17.6,-1.62 -31.56,-9.36 -39.72,-25.73 -1.26,-2.52 -2.95,-3.72 -5.78,-4.1 -22.45,-3.03 -36.9,-19.11 -37.59,-41.82 -0.08,-2.71 -1.16,-4.54 -3.23,-5.97 -4.77,-3.3 -9.01,-7.16 -12.38,-11.9 -0.84,-1.18 -1.79,-1.57 -3.2,-1.47 -12.03,0.84 -22.49,-3.95 -32.54,-9.61 -14.78,-8.32 -25.77,-20.6 -34.83,-34.73 -6.7,-10.45 -14.72,-19.81 -23.69,-28.37 -6.31,-6.03 -11.73,-12.78 -16.17,-20.27 -3.09,-5.21 -2.96,-10.69 -0.36,-16.12 0.3,-0.63 0.53,-1.35 0.98,-1.85 7.82,-8.45 9.77,-18.9 11.48,-29.9 3.47,-22.3 14.73,-41.2 28.01,-59.06 14.07,-18.9 27.97,-37.93 41.67,-57.1 7,-9.8 15.89,-16.35 27.66,-19.17 14.42,-3.45 28.73,-7.34 43.17,-10.71 8.77,-2.05 13.59,0.07 18.05,7.76 5.56,9.57 10.74,19.36 16.05,29.07 2.19,4 1.86,8.02 -1.07,11.37 -5.14,5.88 -8.12,12.33 -8.85,20.32 -0.79,8.72 -7.95,12.3 -15.39,14.05 -7.54,1.78 -15.19,1.05 -19.97,-6.13 -2.77,-4.17 -5.47,-5.43 -10.33,-4.06 -4.76,1.34 -9.57,0.06 -13.51,-3.03 -2.07,-1.63 -2.98,-1.68 -4.21,0.79 -7.06,14.1 -11.76,28.86 -11.71,44.74 0.04,12.26 -0.12,24.4 -5.37,36.3 6.67,-0.48 12.82,-0.77 18.93,0.37 4.3,0.8 8.5,1.93 12.4,3.88 2.01,1 3.1,1.06 4.1,-1.3 2.42,-5.7 6.55,-10.11 11.46,-13.75 4.03,-2.99 6.36,-6.73 7.39,-11.74 2.52,-12.21 15.11,-23.92 27.45,-25.41 5.04,-0.61 8.44,-2.74 11.48,-6.67 9.89,-12.75 27.01,-18.15 41.76,-13.66 7.44,2.26 12.9,7.24 17.99,12.72 2.01,2.16 3.04,2.65 5.26,-0.16 13.73,-17.37 38.33,-19.34 54.77,-4.49 6.83,6.18 14.11,11.17 23.02,14.21 12.45,4.25 19,14.35 22.5,26.5 1.07,3.72 2.75,6.58 5.86,8.86 5.67,4.15 9.92,9.48 12.17,16.23 0.45,1.34 0.72,2.33 2.52,1.23 10.37,-6.31 21.74,-7.87 33.63,-6.91 0.65,0.05 1.32,-0.1 2.62,-0.2 z"
       id="path828" />
    <path
       class="cls-1"
       d="m 170.51,356.04 c -8.76,-5.73 -15.25,-12.85 -16.84,-23.56 -1.12,-7.52 1.13,-14.07 5.09,-20.31 1.19,-1.87 2.02,-1.23 3.26,-0.3 3.36,2.52 6.72,5.05 10.18,7.44 2.21,1.52 4.71,2.6 6.45,-0.54 1.55,-2.81 0.13,-4.72 -2.42,-6.16 -9.15,-5.17 -14.16,-13.31 -16.43,-23.33 -0.38,-1.67 -0.61,-3.16 -2.62,-3.87 -17.34,-6.13 -26.42,-19.5 -31.52,-36.27 -1.22,-4.01 -2.38,-8.05 -4.57,-11.64 -1.52,-2.49 -0.78,-4.25 1.33,-5.69 1.49,-1.02 3.05,-2.04 4.72,-2.66 15.87,-5.9 35.17,-4.57 47.52,8.57 12.36,13.15 17.37,28.97 14.85,46.45 -2.72,18.93 3.07,33.94 17.26,46.08 2.2,1.89 2.1,3.06 0.46,5.05 -2.05,2.48 -3.89,5.14 -5.77,7.76 -6.15,8.61 -7.88,18.04 -5.58,28.37 0.73,3.25 2.69,3.55 5.28,3.15 2.84,-0.45 2.58,-2.58 2.21,-4.54 -1.39,-7.4 0.3,-14.14 4.08,-20.51 3.69,-6.23 8.87,-9.89 16.28,-10.26 3.35,-0.17 6.68,-0.79 10.01,-1.25 1.78,-0.25 3.19,-0.73 2.83,-3.15 -0.32,-2.12 -0.66,-3.83 -3.28,-4.05 -3.21,-0.27 -6.46,-0.46 -9.6,-1.14 -15.01,-3.27 -26.08,-17.99 -26.49,-35.3 -0.21,-8.67 1.1,-17.34 -0.24,-26.01 -2.01,-12.99 -6.32,-24.96 -15.17,-34.93 -2.76,-3.11 -2.09,-6.56 -1.33,-9.94 1.44,-6.44 5.81,-11.06 10.22,-15.64 1.63,-1.69 2.1,-0.27 2.69,0.79 1.3,2.32 2.43,4.74 3.8,7.02 0.68,1.14 1.44,2.68 3.21,2.04 1.86,-0.67 3.14,-2.04 2.86,-4.14 -0.3,-2.2 -0.82,-4.35 -1.83,-6.42 -3.84,-7.85 -1.26,-14.79 3.62,-21.1 4.98,-6.45 11.28,-10.37 19.92,-9.43 2.58,0.28 2.43,1.7 2.3,3.47 -0.39,5.32 -0.76,10.64 0.76,15.88 1.33,4.59 3.82,8.4 7.45,11.47 0.6,0.51 1.51,1.21 2.09,1.07 1.19,-0.28 0.8,-1.61 0.89,-2.51 0.28,-2.89 -0.75,-5.49 -1.92,-8.08 -3.24,-7.14 -4.06,-14.5 -2,-22.15 3.62,-13.45 12.92,-20.62 26.56,-20.41 10.74,0.16 21.66,9.98 24.26,21.77 0.67,3.03 0.87,6.1 0.87,9.2 -0.02,36.78 0,73.56 -0.01,110.34 0,33.72 -0.05,67.43 0.01,101.15 0.03,20.2 -17.91,34.73 -39.02,31.42 -10.61,-1.66 -19.96,-5.65 -26.43,-14.72 -1.05,-1.47 -1.9,-3.1 -2.74,-4.71 -1.41,-2.73 -1.32,-5.06 1.85,-6.57 0.74,-0.35 1.37,-0.97 1.99,-1.55 2.01,-1.88 1.68,-4.1 0.48,-6.14 -1.25,-2.11 -2.95,-0.68 -4.43,-0.14 -2.5,0.91 -4.89,2.19 -7.46,2.81 -16.31,3.92 -32.95,-8.75 -34.69,-26.14 -0.71,-7.13 1.15,-13.92 2.12,-20.83 0.17,-1.24 0.36,-2.51 0.26,-3.75 -0.12,-1.43 -1.12,-2.18 -2.56,-2.29 -1.38,-0.11 -1.93,0.63 -2.28,1.9 -0.82,2.95 -1.82,5.85 -2.79,8.94 z"
       id="path840" />
    <path
       class="cls-1"
       d="m 295.17,358.78 c 0,-58.75 0.05,-117.49 -0.05,-176.24 -0.02,-10.95 5.3,-18.28 14.45,-23.34 8.44,-4.67 16.93,-5.28 25.61,-0.38 12.3,6.94 17.67,28.86 9.36,41.89 -1.26,1.98 -2.46,3.96 -2.98,6.4 -0.54,2.51 0.49,2.76 2.28,2.41 3.53,-0.69 5.9,-3.05 7.88,-5.87 5.4,-7.67 4.58,-16.18 3.26,-24.74 -0.72,-4.68 -0.7,-4.82 3.91,-3.8 9.27,2.05 16.29,7.27 20.93,15.56 3.6,6.44 1.32,12.81 -0.44,19.16 -0.26,0.94 -0.73,1.82 -1.06,2.74 -0.72,2.03 -0.02,3.68 1.73,4.69 1.62,0.94 3.03,-0.11 4.04,-1.26 2.03,-2.31 3.85,-4.81 5.84,-7.17 0.59,-0.7 1.45,-2.42 2.4,-0.49 2.9,5.88 7.16,11.1 8.51,17.74 1.68,8.25 -1.22,15.06 -6.18,21.43 -10.32,13.28 -14.03,28.16 -11.79,44.98 2.35,17.63 -12.6,39.9 -33.45,38.51 -3.17,-0.21 -5.77,0.08 -5.88,4.01 -0.11,3.85 2.9,3.87 5.53,4.22 0.83,0.11 1.68,0.03 2.52,0.03 16.59,-0.1 26.69,11.65 24.36,28.32 -0.23,1.67 -0.43,3.34 -0.54,5.02 -0.09,1.33 0.32,2.5 1.59,3.2 1.51,0.82 2.75,0.04 3.85,-0.83 2,-1.59 2.5,-3.99 3.02,-6.32 2.33,-10.49 -0.07,-20 -5.98,-28.8 -1.79,-2.67 -4.76,-5.42 -4.77,-8.15 -0.02,-2.54 4.34,-3.76 6.44,-5.96 10.81,-11.38 13.57,-25.09 11.52,-40.11 -0.71,-5.2 -1.33,-10.45 0.67,-15.34 4.5,-11.01 9.59,-21.82 17.08,-31.15 13.99,-17.42 34.83,-16.89 52.31,-8.62 4.96,2.35 4.79,3.53 2.63,8.46 -2.13,4.86 -3.75,9.94 -5.66,14.89 -6.13,15.85 -16.67,27.07 -33.46,31.64 -1.89,0.51 -2.54,1.51 -2.92,3.45 -2.02,10.46 -7.3,18.68 -16.98,23.73 -1.22,0.64 -2.37,1.55 -3.32,2.54 -1.34,1.4 -1.27,3.13 -0.17,4.63 1.07,1.47 2.49,0.86 3.77,0.17 4.07,-2.19 8.28,-4.17 12.14,-6.67 2.82,-1.83 4.4,-1.03 6.1,1.33 4.24,5.89 4.97,12.4 3.34,19.24 -2.04,8.56 -7.19,15.06 -13.95,20.46 -1.32,1.05 -2.1,1.16 -2.74,-0.62 -0.66,-1.84 -1.43,-3.65 -2.28,-5.41 -0.88,-1.8 -1.39,-4.49 -4.23,-3.65 -2.85,0.84 -2.48,3.2 -1.94,5.57 1.13,4.91 2.65,9.71 3.25,14.75 1.88,15.76 -7.22,29.86 -21.79,33.53 -5.37,1.35 -10.54,0.51 -15.59,-1.53 -1.81,-0.73 -3.6,-1.68 -5.49,-2.04 -2.91,-0.56 -4.81,2.1 -3.49,4.77 0.54,1.1 1.31,2.28 2.3,2.94 4.01,2.71 3.7,5.43 1.23,9.31 -12.44,19.57 -38.53,24.05 -56.34,9.27 -7.9,-6.55 -10.83,-15.47 -10.89,-25.45 -0.08,-12.35 -0.02,-24.71 -0.02,-37.06 0.17,0 0.35,0 0.52,0 z"
       id="path842" />
    <path
       class="cls-1"
       d="m 379.46,111.82 c -3.27,-1.47 -5.01,-3.93 -7.17,-5.87 -1.18,-1.06 -0.84,-2.07 -0.19,-3.35 4,-7.87 7.81,-15.84 11.86,-23.68 2.67,-5.17 5.78,-6.52 11.4,-5.11 14.52,3.65 29.03,7.33 43.52,11.12 6.88,1.8 12.51,5.69 16.68,11.44 17.68,24.4 35.47,48.73 52.87,73.33 10.82,15.3 17.49,32.14 17.26,51.35 -0.1,8.13 3.09,15.25 9.26,20.93 4.14,3.81 4.28,6.87 0.91,11.45 -3.33,4.51 -6.88,8.86 -10.19,13.38 -1.05,1.44 -1.88,1.77 -3.24,0.53 -0.51,-0.47 -1.17,-0.77 -1.77,-1.13 -8.38,-4.9 -14.09,-4.03 -20.39,3.33 -6.22,7.26 -12.89,14.07 -19.97,20.49 -9.31,8.45 -19.69,14.78 -32.38,16.68 -1.65,0.25 -3.25,0.85 -4.88,1.25 q -8.33,2.06 -12.2,-5.56 c -1.53,-3.03 0.21,-9.42 3.28,-10.65 21.78,-8.68 32.23,-26.41 37.95,-47.74 1.09,-4.05 2.29,-4.85 5.67,-2.52 1.02,0.7 2.25,1.18 3.44,1.52 1.93,0.55 3.64,0.04 4.78,-1.71 1.12,-1.71 1.01,-3.38 -0.19,-5.08 -1.27,-1.8 -3.08,-2.87 -4.97,-3.76 -16.64,-7.82 -23.82,-21.74 -25.26,-39.29 -0.63,-7.69 -1.18,-15.39 -1.44,-23.09 -0.5,-14.74 -5.05,-28.34 -11.27,-41.48 -1.98,-4.19 -2.29,-7.59 1.73,-10.77 2.21,-1.75 3.3,-4.49 4.46,-7.05 1.19,-2.63 0.27,-4.75 -1.95,-6.18 -2.47,-1.6 -4.22,-0.07 -5.66,1.86 -0.67,0.9 -1.29,1.84 -1.87,2.79 -4.45,7.26 -11.1,11.2 -19.24,13.11 -2.46,0.58 -2.7,-0.15 -2.19,-2.2 1.13,-4.58 3.2,-8.66 6.36,-12.17 1.81,-2.01 3.4,-4.28 0.59,-6.44 -2.48,-1.91 -4.29,-0.14 -5.97,1.84 -3.88,4.58 -6.62,9.73 -7.92,15.57 -0.43,1.91 -0.62,3.8 -3.18,2.87 -2.29,-0.83 -5.7,-0.57 -5.4,-4.56 0.29,-3.81 1.64,-7.37 2.66,-11.01 0.57,-2.02 1.46,-3.95 1.97,-5.98 0.54,-2.16 1.21,-4.5 -1.93,-5.47 -2.99,-0.92 -3.94,0.95 -4.72,3.24 -1.57,4.63 -3.7,9.18 -4.09,14.05 -0.43,5.41 -3.88,3.2 -6.46,3.03 -3.24,-0.21 -3.68,-2.66 -3.37,-5.2 0.31,-2.52 1.53,-4.78 2.66,-7.04 1.24,-2.5 2.58,-4.96 3.64,-7.54 0.71,-1.74 0.83,-3.61 -1.32,-4.7 -2.22,-1.13 -3.99,-0.29 -4.92,1.69 -2.89,6.16 -6.99,11.88 -7.26,19.46 z"
       id="path844" />
    <path
       class="cls-1"
       d="m 187.86,118.7 c -0.12,-6.98 -2.62,-13.38 -4.71,-19.87 -0.77,-2.41 -1.95,-4.7 -4.95,-3.81 -3.12,0.93 -2.61,3.38 -1.82,5.87 1.44,4.54 2.7,9.13 4.03,13.7 0.52,1.78 0.63,3.61 0.28,5.42 -0.67,3.53 -3.69,3.46 -6.25,3.72 -3.06,0.31 -1.62,-2.28 -1.91,-3.6 -1.43,-6.6 -4.38,-12.38 -8.92,-17.36 -1.59,-1.75 -3.41,-2.75 -5.43,-0.85 -1.95,1.83 -1.33,3.88 0.24,5.59 2.89,3.16 5.02,6.74 6.34,10.79 0.6,1.86 2.17,3.94 -0.68,5.43 -2.69,1.4 -5.17,1.29 -7.15,-1.17 -3.5,-4.37 -6.92,-8.8 -10.33,-13.23 -0.77,-1 -1.4,-2.1 -2.1,-3.15 -1.35,-2.03 -3.23,-2.89 -5.41,-1.69 -2.16,1.19 -3.17,3.23 -2.23,5.71 1.25,3.31 3.01,6.32 5.69,8.72 2.25,2.01 3,4.45 1.55,7.17 -11.01,20.69 -12.9,43.22 -13.83,66.07 -0.55,13.47 -5.06,25.54 -16.03,34.39 -3.08,2.49 -6.59,4.24 -10.05,6.09 -1.74,0.93 -3.46,1.89 -4.52,3.67 -0.95,1.59 -0.94,3.22 0,4.78 1,1.65 2.61,2.07 4.38,1.79 0.95,-0.15 1.88,-0.56 2.78,-0.94 5.38,-2.29 5.45,-2.31 7.09,3.17 2.57,8.63 5.63,17.03 10.59,24.63 5.25,8.04 11.98,14.55 20.57,18.81 3.51,1.74 5,4 5.15,7.68 0.08,1.83 0.21,3.6 -0.2,5.43 -1.56,7.03 -2.1,6.98 -9.13,5.87 -15.8,-2.49 -28.53,-10.28 -39.68,-21.32 -5.39,-5.34 -10.68,-10.76 -15.59,-16.54 -6.57,-7.75 -12.04,-8.9 -20.55,-3.63 -3.07,1.9 -4.64,1.76 -6.62,-1.26 -2.69,-4.09 -5.9,-7.83 -8.78,-11.81 -3.13,-4.33 -3.04,-7.69 0.85,-11.18 6.51,-5.84 9.62,-13.24 9.55,-21.66 -0.17,-20.35 7.86,-37.65 19.34,-53.65 16.18,-22.55 32.71,-44.86 48.9,-67.41 5.77,-8.04 13.09,-13.05 22.8,-15.23 12.7,-2.85 25.26,-6.34 37.86,-9.61 7.73,-2.01 10.44,-0.79 14.06,6.54 3.1,6.27 6.06,12.61 9.37,18.77 1.56,2.9 2.23,5.08 -0.16,8.07 -2.19,2.74 -4.45,4.9 -8.35,6.26 0.54,-7.63 -3.48,-13.47 -6.34,-19.73 -1.17,-2.56 -2.77,-4.64 -5.75,-3.05 -2.88,1.53 -1.64,4.09 -0.61,6.27 1.24,2.65 2.68,5.22 3.91,7.88 3.54,7.65 1.44,11.61 -7.27,13.49 z"
       id="path846" />
    <path
       class="cls-2"
       d="m 442.31,341.1 c -5.38,0.09 -5.49,0.07 -4.34,-5.27 0.99,-4.59 1.04,-9.22 0.54,-13.8 -0.28,-2.53 0.4,-3.35 2.79,-3.93 11.03,-2.69 21.9,-5.78 31.64,-11.98 11.16,-7.1 20.61,-15.9 27.94,-26.92 3.03,-4.56 6.86,-7.3 12.6,-6.62 4.39,0.51 5.83,2.99 3.22,6.56 -5.2,7.12 -10.99,13.82 -16.07,21.03 -5.16,7.32 -9.57,15.15 -16.21,21.37 -11.92,11.17 -25.53,18.55 -42.11,19.57 z"
       id="path848" />
    <path
       class="cls-2"
       d="m 140.72,340.92 c -14.55,-1.7 -26.93,-8.04 -37.71,-17.78 -5.97,-5.39 -10.89,-11.62 -14.99,-18.54 -4.8,-8.11 -11.14,-15.08 -16.93,-22.47 -1.92,-2.45 -5.07,-5.31 -2.33,-8.42 2.72,-3.09 6.78,-1.94 10.19,-0.4 2.9,1.3 4.6,4.03 6.34,6.51 13.25,18.88 30.81,31.48 53.41,36.68 3.47,0.8 4.79,1.87 3.87,5.84 -1.18,5.04 -1.07,10.39 0.64,15.37 1.02,2.96 0.17,3.54 -2.5,3.2 z"
       id="path850" />
    <path
       class="cls-4"
       d="m 185.28,127.83 c 6,-2.12 11.91,-4.2 17.8,-6.3 0.53,-0.19 0.91,-0.34 1.42,0.17 2.9,2.88 2.09,8.75 -1.51,10.64 -7.12,3.75 -12.56,2.44 -17.71,-4.52 z"
       id="path852" />
    <path
       class="cls-4"
       d="m 389.98,134.39 c -2.85,-0.22 -5.49,-1.17 -7.94,-2.55 -2.84,-1.6 -3.03,-8.5 -0.37,-10.38 0.75,-0.53 1.31,0.06 1.91,0.27 4.48,1.55 9.01,3 13.41,4.76 3.36,1.35 3.45,2.67 0.67,4.89 -2.24,1.79 -4.74,2.94 -7.67,3.01 z"
       id="path854" />
    <path
       class="cls-3"
       d="m 252.66,276.12 c 2.5,0.29 5.08,-0.56 7.72,-0.82 1.49,-0.15 3.47,-1.05 4.06,1.57 0.49,2.19 0.05,4.09 -2.03,4.96 -4.29,1.8 -8.78,3.18 -13.48,2.45 -21.71,-3.38 -36.85,-25.24 -32.44,-46.84 0.47,-2.3 1.53,-4.5 2.49,-6.67 0.93,-2.1 2.37,-3.47 4.97,-2.5 2.98,1.12 1.96,3.17 1.32,5.19 -4.52,14.26 0,28.98 11.52,37.62 4.64,3.48 9.81,5.34 15.87,5.03 z"
       id="path864" />
    <path
       class="cls-3"
       d="m 248.43,390.55 c -11.29,0.04 -24.07,-9.01 -27.54,-19.59 -0.84,-2.57 -0.67,-5.27 -0.34,-7.93 0.3,-2.46 2.26,-2.48 4.1,-2.66 2.02,-0.2 3.25,0.54 3.41,2.68 0.04,0.56 0.11,1.12 0.22,1.67 3.5,17.25 20.37,23.63 34.44,13.09 1.41,-1.06 2.67,-3.99 5.09,-1.21 2.11,2.42 1.45,4.45 -0.67,6.57 -4.37,4.35 -11.75,7.35 -18.72,7.38 z"
       id="path866" />
    <path
       class="cls-3"
       d="m 264.09,331.27 c -0.11,4.59 -0.94,10.66 -4.25,16.09 -0.94,1.54 -2.04,3.02 -3.29,4.33 -1.41,1.47 -3.62,1.62 -5.08,0.83 -1.68,-0.91 -0.28,-2.76 0.23,-4.05 1.38,-3.5 3.16,-6.85 4.41,-10.39 4.22,-11.96 -2.22,-23.2 -14.63,-25.77 -2.46,-0.51 -4.92,-0.99 -7.37,-1.53 -1.27,-0.28 -2.55,-0.72 -2.5,-2.32 0.05,-1.55 0.96,-2.53 2.5,-2.96 3.47,-0.97 6.9,-0.67 10.38,0.05 12.25,2.53 19.67,11.61 19.6,25.72 z"
       id="path868" />
    <path
       class="cls-3"
       d="m 255.91,230.35 c -0.05,-3.72 -1.06,-6.9 -2.56,-9.95 -2.21,-4.53 -1.66,-8.94 0.45,-13.33 0.97,-2.03 2.07,-2.07 3.32,-0.3 8.28,11.67 9.12,35.07 -5.05,44.39 -1.96,1.29 -4.1,3.19 -6.1,0.3 -1.86,-2.68 -1.04,-4.62 1.79,-6.5 5.19,-3.46 7.91,-8.57 8.15,-14.61 z"
       id="path870" />
    <path
       class="cls-3"
       d="m 365.41,244.32 c -0.24,18.36 -12.19,34.91 -27.56,38.84 -5.95,1.52 -11.96,1.39 -17.94,0.36 -2.25,-0.39 -3.95,-1.67 -3.39,-4.39 0.54,-2.6 1.93,-3.64 4.81,-3.27 24.37,3.08 40.26,-15.15 34.69,-39.63 -0.57,-2.51 -2.83,-5.8 1.25,-7.14 3.82,-1.25 4.89,2.5 6.24,4.9 1.89,3.37 2.26,7.17 1.9,10.33 z"
       id="path872" />
    <path
       class="cls-3"
       d="m 345.73,302.64 c 2.77,0.2 4.22,1.04 4.59,3.48 0.36,2.39 -0.08,4.33 -2.51,5.05 -2.8,0.84 -5.73,1.24 -8.57,1.97 -12.24,3.15 -17.55,14.12 -12.53,25.79 1.38,3.21 2.99,6.36 3.93,9.69 1.02,3.6 -0.84,5.07 -4.34,3.72 -5.52,-2.13 -8.05,-6.77 -9.44,-12.08 -4.52,-17.23 2.66,-29.75 19.8,-34.85 3.21,-0.95 6.4,-1.95 9.08,-2.78 z"
       id="path874" />
    <path
       class="cls-3"
       d="m 359.46,365.04 c -0.63,9.8 -5.68,16.85 -14.12,21.37 -9.15,4.9 -18.63,5.9 -28.08,0.64 -2.45,-1.36 -4.69,-3.07 -5.97,-5.74 -0.93,-1.93 -0.4,-3.5 0.92,-5 1.39,-1.57 2.79,-0.74 4.17,-0.05 4.36,2.17 8.38,5.03 13.54,5.33 10.15,0.59 17.32,-4.23 20.24,-13.98 0.56,-1.88 0.96,-3.8 1.48,-5.69 0.55,-1.99 1.38,-3.91 3.85,-3.69 2.45,0.21 3.51,2.09 3.95,4.29 0.16,0.81 0.03,1.68 0.03,2.52 z"
       id="path876" />
    <path
       class="cls-3"
       d="m 317.33,226.51 c -0.15,-5.75 3.07,-12.39 6.7,-18.9 1.44,-2.58 2.81,-1.95 3.78,0.25 1.49,3.38 2.33,6.9 0.91,10.56 -3.78,9.74 -2.98,18.61 4.87,26.19 0.59,0.57 1,1.34 1.45,2.05 1.39,2.18 1.2,4.44 -0.55,6.14 -1.72,1.68 -3.72,0.62 -5.34,-0.53 -8.23,-5.78 -11.66,-13.97 -11.82,-25.76 z"
       id="path878" />
    <path
       class="cls-3"
       d="m 471.3,158.13 c 1.68,-0.05 2.49,1.61 2.8,3.73 1.19,8.01 2.35,15.99 4.92,23.76 5.99,18.16 15.55,33.72 31.5,44.79 2.67,1.86 3.71,4.22 1.81,6.71 -1.99,2.61 -4.41,0.56 -6.2,-0.8 -15.61,-11.86 -26.28,-27.32 -32.92,-45.65 -3.01,-8.31 -5.07,-16.87 -6.54,-25.56 -0.75,-4.45 0.62,-6.8 4.63,-6.98 z"
       id="path880" />
    <path
       class="cls-3"
       d="m 119.45,161.08 c -1.17,8.6 -3.15,17.03 -5.96,25.25 -6.46,18.87 -16.97,34.93 -32.9,47.2 -0.66,0.51 -1.3,1.09 -2.03,1.48 -1.81,0.96 -3.77,2.56 -5.42,-0.13 -1.4,-2.28 -0.79,-4.35 1.27,-5.91 2.77,-2.1 5.61,-4.07 8.21,-6.45 11.13,-10.17 18.63,-22.55 23.46,-36.7 2.54,-7.43 4.65,-14.95 5.09,-22.85 0.05,-0.97 0.39,-1.92 0.56,-2.88 0.41,-2.29 1.3,-4.07 4.08,-3.71 2.73,0.35 3.89,1.97 3.62,4.7 z"
       id="path882" />
  </g>
</svg>
