<svg width="742" height="398" viewBox="0 0 742 398" fill="none" xmlns="http://www.w3.org/2000/svg">
<path d="M139.026 251.454L135.709 248.763C134.347 247.657 132.244 245.681 131.771 245.662C129.736 245.583 100.061 225.497 95.4051 220.938C94.8149 220.361 91.5895 217.805 89.4316 216.155C78.3711 207.698 56.9857 175.065 46.511 160.231C45.411 158.674 36.815 158.979 35.6495 157.535C28.9151 149.195 14.8131 125.284 7.3501 109.644C0.0696716 94.3863 1.62332 94.2625 2.31879 90.7852C2.65498 89.1042 6.75778 82.2167 13.2272 73.3901C19.6966 64.5635 25.8897 56.3201 26.9897 54.7728C44.3404 30.3682 43.0992 29.2864 48.1881 29.3105C52.8024 29.3325 48.8552 27.1615 79.486 51.6019C89.3235 59.4512 100.848 68.3898 105.096 71.7638C113.369 78.3343 114.248 81.2793 112.552 85.7151C111.141 89.4065 110.557 89.5615 93.3724 98.3619C84.5724 102.868 77.2772 107.612 76.8624 108.009C76.8624 108.009 88.9552 118.576 105.375 126.79L139.526 143.874L145.542 132.445C156.449 111.725 168.812 94.3846 186.292 85.7531C190.359 83.7446 198.729 80.5181 200.989 80.5016C204.618 80.4756 212.305 77.1917 213.466 69.706C215.28 58.0164 220.131 36.8071 223.843 33.7264C224.614 33.0862 228.176 30.9515 228.176 30.4751C228.176 28.321 232.987 20.293 239.26 15.9932C256.219 4.36826 281.032 -1.34952 304.052 3.86548C331.889 10.1719 350.114 27.8091 358.233 59.6696C378.844 188.711 137.641 256.833 139.026 251.454ZM196.838 229.129C208.772 224.283 221.989 214.766 236.114 200.849C243.226 193.842 250.348 186.359 251.941 184.22C253.534 182.081 255.305 179.831 255.875 179.22C258.008 176.936 261.338 170.813 261.338 169.175C261.338 168.242 258.787 163.481 258.219 162.419C257.294 160.69 257.452 164.025 250.735 172.03C241.232 183.356 224.372 196.466 215.138 202.85C200.124 213.23 191.205 216.789 178.838 216.811C169.283 216.828 164.425 213.917 155.934 207.492C150.885 203.672 142.945 196.013 142.945 194.466C142.945 194.105 142.767 191.419 141.594 189.771C140.42 188.123 140.132 184.097 137.086 181.681L134.851 170.483L131.922 183.609C127.538 203.255 147.374 222.795 165.068 230.246C170.104 232.367 172.046 232.631 180.338 232.324C187.923 232.043 191.249 231.399 196.838 229.129ZM135.351 164.359L133.706 156.545L119.141 148.519C112.092 144.634 96.6006 137.208 84.9395 131.28C73.2784 125.352 60.8106 118.352 56.9146 116.363C50.3357 113.003 48.9801 112.873 48.0844 114.547C46.4855 117.535 46.2075 124.349 48.5878 127.071C50.2767 129.002 131.553 169.769 134.851 170.483C135.17 170.552 138.789 164.359 135.351 164.359ZM153.626 162.954C155.246 157.854 161.58 144.12 164.623 139.109C170.25 129.844 181.539 117.83 188.338 113.872C194.01 110.569 203.765 107.433 207.276 107.784C210.216 108.077 210.766 108.677 212.892 113.92C217.921 126.317 229.406 138.55 240.838 143.683C251.283 148.374 271.252 150.007 281.406 147.001C295.81 142.737 313.338 127.249 313.338 118.787C313.338 112.297 311.344 111.112 306.24 116.838C299.865 123.991 292.304 128.017 283.239 131.215C273.179 134.764 258.702 133.344 248.099 129.985C239.498 127.26 233.759 123.284 228.954 118.553C223.449 113.133 217.956 101.563 215.888 95.6874C213.756 89.6313 207.943 91.7263 199.414 94.6607C190.349 97.7797 185.615 101.3 178.279 108.22C167.61 118.284 160.627 132.412 154.575 149.609C151.454 158.476 149.541 168.619 150.994 168.595C151.458 168.585 152.642 166.049 153.626 162.954ZM41.1418 72.3591C45.1085 66.9966 48.6879 62.6102 49.096 62.6115C49.504 62.6125 56.3079 67.7878 64.2159 74.1115C72.1238 80.4352 80.9688 87.9557 80.9688 87.9557C81.1278 87.9557 84.1812 88.2806 85.777 85.9068L94.4678 83.0757L87.6099 76.2119C85.989 74.8746 84.7869 73.7306 83.9825 73.0323C83.1782 72.334 79.6602 70.7138 77.4396 69.1132C75.219 67.5126 73.9594 64.6242 73.6844 64.2878C73.4094 63.9515 70.0344 62.0144 66.1844 59.0271C62.3344 56.0398 57.7986 52.7948 56.4236 51.4973C51.2427 46.6085 45.0459 45.1165 30.7184 70.0659L17.2922 93.4457L20.6286 100.442L27.2791 91.2758C30.9368 86.2342 37.175 77.7216 41.1418 72.3591ZM342 84.3591C341.723 83.6716 341.496 84.2341 341.496 85.6091C341.496 86.9841 344.265 75.0523 344.543 74.3648C344.82 73.6773 342.278 85.0466 342 84.3591ZM343.838 65.3907C338.433 39.5062 319.946 22.434 298.302 18.1759C289.53 16.45 267.37 18.0335 259.956 20.5736C242.928 26.4073 230.187 44.0621 226.561 64.8563C224.885 74.4646 226.05 76.23 226.921 75.3591C227.242 75.0383 227.47 74.5146 227.429 74.1953C227.201 72.454 232.721 59.9136 235.915 54.9126C240.764 47.3229 242.732 45.2479 249.338 40.7635C256.745 35.735 259.023 34.8486 269.027 33.1041C305.329 26.7735 333.753 38.2096 341.571 70.5963C344.112 81.1216 346.326 77.302 343.838 65.3907ZM382.567 79.6896C383.46 69.4626 385.203 59.2698 388.561 49.5464C395.531 29.3611 402.55 18.7514 419.886 10.5008C432.153 4.66249 440.596 2.89108 456.112 2.90008C484.191 3.54368 505.033 11.5267 518.918 34.35C524.266 43.352 528.63 60.9327 531.389 69.0027L533.599 75.4666L540.779 79.0419C561.349 89.2861 581.578 101.199 594.632 128.582C597.15 133.862 601.338 138.053 601.338 138.605C601.338 139.157 601.001 141.074 601.23 141.074C601.458 141.074 610.585 138.5 618.744 134.306C626.904 130.113 640.045 122.486 648.157 118.407C656.27 114.327 665.105 108.742 665.105 108.296C665.105 107.851 659.974 103.661 656.262 101.926C652.549 100.191 647.1 96.9668 645.175 95.912C643.25 94.8573 642.836 94.8234 641.186 94.0465C629.779 88.6754 629.287 87.4284 629.334 82.1205C629.371 77.8903 626.856 78.98 632.954 74.2936C635.429 72.3913 636.632 69.746 636.907 69.4381C637.182 69.1303 640.18 67.5122 642.93 65.3308C645.68 63.1495 648.26 61.4326 648.535 61.132C648.81 60.8313 652.169 58.2603 655.744 55.5464C659.319 52.8325 667.771 45.4359 674.653 39.8769C681.536 34.3179 686.679 29.9792 687.873 29.3403C690.579 27.8919 693.12 27.3292 696.122 28.7182C698.156 29.6592 705.521 39.0743 712.101 48.8445C713.371 50.7303 720.772 60.8221 728.165 71.0147C737.83 84.3417 740.559 90.0218 740.559 92.0417C740.559 101.085 717.109 141.115 699.106 164.887C673.036 199.312 646.375 221.166 612.027 242.093C579.272 252.255 397.416 234.904 382.567 79.6896ZM574.713 229.882C581.921 226.672 582.039 226.589 588.693 220.066C595.757 213.141 597.888 210.44 600.668 204.887C604.289 197.657 606.257 190.809 606.783 183.609L606.736 170.852L601.439 183.29C595.925 196.238 587.644 207.236 576.638 212.107C559.379 219.744 543.396 217.392 520.552 198.891C511.551 191.601 491.514 174.362 491.514 172.827C493.691 170.95 492.038 172.827 491.514 172.827C490.991 172.827 489.43 169.759 487.727 167.284C484.275 162.266 478.68 163.396 477.766 167.037C476.848 170.695 477.923 172.953 484.596 181.391C497.689 197.946 517.895 216.06 532.751 224.559C547.522 233.011 563.216 235.001 574.713 229.882ZM591.03 155.598C585.605 135.784 570.358 112.377 556.627 101.304C550.265 96.1738 528.929 90.2164 527.052 92.398C526.654 92.8617 525.378 97.1645 524.218 100.048C517.001 117.983 503.85 127.013 484.31 130.522C463.516 134.255 447.531 129.604 435.343 114.438C432.844 111.328 429.74 106.48 429.093 107.5C424.909 114.103 433.915 135.907 448.868 143.405C457.145 147.555 463.973 148.867 474.225 148.279C479.512 147.976 486.198 147.279 489.084 146.729C503.715 143.945 519.404 129.872 525.982 113.633C527.951 108.773 528.594 108.071 531.324 107.792C535.427 107.374 545.72 110.875 551.33 114.597C565.457 123.971 579.082 143.525 585.461 163.58C587.717 170.67 592.025 171.904 592.32 168.372C592.491 166.325 592.197 159.86 591.03 155.598ZM661.606 143.315C675.778 136.157 688.491 129.183 689.856 127.818C692.495 125.18 691.748 115.072 689.724 113.048C688.991 112.315 683.896 115.934 672.234 122.026C663.049 126.824 643.969 134.637 630.784 142.392L606.556 156.642L605.773 164.002C605.467 166.886 607.611 169.549 607.945 169.883C608.279 170.217 614.692 167.304 622.195 163.41C629.699 159.516 647.433 150.474 661.606 143.315ZM723.11 97.7593C724.126 94.8429 725.434 91.7622 721.257 85.6494C718.773 82.0139 716.404 78.2595 715.038 76.6688C713.671 75.0781 711.248 73.7698 711.248 73.4429C711.247 73.1159 710.495 69.8253 709.258 68.361C708.022 66.8967 703.686 62.5455 700.402 57.4278L692.752 45.5066L680.645 52.217C655.036 66.4106 648.738 77.9434 649.159 78.6258C649.42 79.0482 652.212 84.8967 654.406 85.8864C659.022 87.9678 658.763 87.2534 674.963 74.0798C680.394 69.6637 686.163 65.2085 687.782 64.1795C690.712 62.3178 690.734 62.3201 692.273 64.6382C693.124 65.9196 695.85 69.6997 698.331 73.0385C700.812 76.3774 706.146 83.7216 710.184 89.3591C714.223 94.9966 720.758 102.216 721.203 102.216C721.647 102.216 722.505 99.4937 723.11 97.7593ZM401.095 70.3591C403.957 60.7424 411.028 48.9237 416.7 44.2758C427.953 35.0547 442.105 30.9627 459.338 31.9475C465.113 32.2775 472.147 33.1816 474.969 33.9566C491.149 38.3991 503.105 50.2016 509.062 67.6091L514.676 75.152L514.702 70.62C514.716 68.1274 513.525 62.3237 512.693 59.3163C511.86 56.309 511.777 51.8012 511.551 50.8925C510.381 46.1825 500.638 33.0622 495.829 28.8482C494.82 27.9643 490.674 24.8296 489.482 23.7942C486.009 20.7752 475.562 17.8344 468.774 16.7329C460.734 15.4281 445.864 16.9741 438.921 18.2613C426.811 20.5068 412.817 30.0623 405.962 40.8054C400.476 49.4024 400.045 59.1945 397.42 74.6198C396.42 80.4919 398.894 77.7554 401.095 70.3591Z" fill="#FFB380"/>
<path d="M263.415 396.132C244.548 391.706 227.337 379.825 215.536 363.08L210.089 355.35L201.807 354.785C185.884 353.7 170.581 346.504 158.075 334.222C149.029 325.339 145.285 320.052 140.022 308.737C132.614 292.807 131.572 277.638 136.667 259.889C137.563 256.767 138.045 253.557 137.737 252.756C137.429 251.954 134.556 249.817 131.351 248.007C103.841 232.467 75.8351 208.596 51.0007 179.519C41.6157 168.531 25.7881 145.538 17.1548 130.352C8.60198 115.306 0.0249023 96.4455 0.0249023 92.6831C0.0249023 89.843 3.37238 84.6445 20.1561 61.4202C31.2283 46.0991 41.4376 32.3262 42.8433 30.8137C45.8407 27.5886 50.2908 27.1742 54.0524 29.7699C55.4122 30.7084 66.4249 39.3642 78.5249 49.0051C90.6249 58.6461 102.492 68.0416 104.895 69.8841C115.855 78.2856 117.503 80.776 115.733 86.2663C114.743 89.3382 112.614 90.6796 92.2749 101.041C84.4374 105.033 78.0291 108.809 78.0342 109.432C78.0467 110.954 138.609 141.439 139.961 140.603C140.546 140.242 141.025 139.488 141.025 138.929C141.025 136.791 151.253 117.496 155.735 111.18C168.503 93.1829 181.901 83.3176 199.786 78.7426L208.393 76.541L209.708 68.5524C210.431 64.1586 212.409 56.5137 214.102 51.5637C225.624 17.8767 248.712 1.80067 285.525 1.83281C300.233 1.84561 309.763 3.77884 320.525 8.9323C342.658 19.5309 355.261 38.4685 360.715 69.3235C362.393 78.8172 362.525 88.0931 362.525 196.564C362.525 291.7 362.267 314.961 361.146 321.04C354.39 357.682 329.151 387.498 298.073 395.551C288.082 398.14 273.05 398.392 263.415 396.132ZM291.226 379.974C308.865 376.345 326.937 361.337 336.272 342.564C342.445 330.151 345.916 315.085 344.13 308.458C342.409 302.073 336.862 293.888 331.525 289.857C322.696 283.191 306.503 278.07 294.21 278.058C286.914 278.051 281.32 276.483 280.037 274.086C278.075 270.42 278.824 265.367 281.66 263.136C287.787 258.317 315.893 262.344 331.423 270.267C335.866 272.534 341.169 276.074 342.159 277.436C344.775 281.03 345.05 275.707 345.292 216.798C345.43 183.38 345.292 155.337 344.995 154.48C344.591 153.327 343.124 154.438 339.365 158.742C320.088 180.818 293.201 203.697 269.861 217.885C259.69 224.069 237.796 235.123 225.525 240.27C201.046 250.539 167.461 260.44 159.044 259.868C154.631 259.568 154.543 259.623 153.155 263.564C151.195 269.129 150.555 284.483 151.994 291.415C154.939 305.599 167.346 322.758 180.146 330.346C187.474 334.691 210.967 338.79 212.38 337.377C212.953 336.804 224.806 326.86 231.591 320.774C235.704 317.085 241.303 314.283 241.303 314.283C241.303 314.283 244.525 311.844 252.504 311.844C260.008 311.845 271.132 317.39 279.866 321.546C280.421 321.81 280.966 322.068 281.5 322.319C293.723 328.065 292.368 339.53 286.738 341.338C281.267 343.094 274.326 336.967 268.673 333.423C263.512 330.186 257.101 327.956 256.391 327.763C242.973 324.102 225.128 352.997 239.635 364.871C246.867 370.79 258.156 377.658 266.208 379.607C272.9 381.227 284.321 381.394 291.226 379.974ZM179.897 237.101C204.805 229.904 232.698 218.272 253.467 206.419C284.605 188.648 315.963 160.835 339.856 129.796L344.186 124.17L344.356 98.3667C344.515 74.1178 344.383 72.0217 342.155 63.5637C336.12 40.6484 323.416 26.1124 305.045 21.1033C295.963 18.6269 278.043 18.3529 267.755 20.533C256.329 22.9542 245.131 30.3256 238.507 39.7854C233.285 47.2428 228.96 59.4844 227.62 70.6014C226.931 76.3149 229.59 88.133 233.506 96.7602C241.072 113.427 262.142 121.818 280.382 115.428C285.86 113.509 293.486 107.641 297.172 102.508C301.155 96.9623 305.362 95.3421 310.359 97.4298C314.403 99.1197 316.025 101.609 316.025 106.128C316.025 109.319 313.179 112.96 303.025 122.764C297.466 128.13 284.812 133.833 275.843 135.014C262.565 136.761 248.558 134.083 237.7 127.719C228.514 122.336 219.106 110.805 214.931 99.8137C212.466 93.3229 211.318 92.9056 203.025 95.485C190.731 99.3089 181.632 105.773 172.772 116.978C162.944 129.406 153.138 150.988 151.474 163.851C150.055 174.822 161.296 193.914 172.709 199.915C175.787 201.534 184.969 201.342 190.149 199.551C204.832 194.475 223.381 179.163 242.057 156.705L249.423 147.846L253.597 148.419C260.299 149.337 262.915 150.961 263.603 154.63C264.265 158.159 263.427 160.499 262.007 160.499C261.522 160.499 257.84 165.998 253.825 170.807C220.217 211.059 188.376 227.17 164.557 215.974C156.152 212.023 144.826 200.454 139.873 190.761C136.447 184.055 133.763 171.215 134.469 164.909C135.25 157.939 136.218 158.72 111.317 146.232C78.6648 129.858 53.5809 116.867 50.7749 114.877C48.5949 113.332 48.0249 112.136 48.0249 109.106C48.0249 106.899 48.764 104.437 49.7749 103.277C51.706 101.06 78.2682 87.0637 80.5439 87.0637C82.8408 87.0637 91.0249 82.7683 91.0249 81.5629C91.0249 80.9566 85.3476 75.9837 78.4087 70.5121C71.4698 65.0405 62.5823 57.9882 58.6587 54.8404C51.9487 49.4571 49.0249 47.959 49.0249 49.9041C49.0249 50.3664 42.8374 59.2618 35.2749 69.6719C16.4261 95.618 17.7794 93.232 19.5319 97.4263C20.3364 99.3517 21.4146 101.187 21.928 101.504C22.4414 101.821 25.2183 106.464 28.0988 111.822C57.2024 165.955 97.4822 208.109 146.002 235.211C158.975 242.458 160.97 242.569 179.897 237.101Z" fill="#FF7F2A"/>
<path d="M478.578 395.057C497.444 390.631 514.655 378.75 526.456 362.006L531.904 354.275L540.185 353.711C556.108 352.625 571.411 345.43 583.917 333.148C592.963 324.264 596.708 318.978 601.97 307.662C609.379 291.732 610.421 276.563 605.325 258.814C604.429 255.693 603.948 252.483 604.255 251.681C604.563 250.879 607.437 248.742 610.641 246.932C638.151 231.393 666.157 207.522 690.992 178.445C700.376 167.456 716.204 144.464 724.838 129.277C733.39 114.232 741.967 95.3709 741.967 91.6085C741.967 88.7684 738.62 83.5699 721.836 60.3456C710.764 45.0245 700.555 31.2517 699.149 29.7392C696.152 26.514 691.701 26.0996 687.94 28.6954C686.58 29.6338 675.567 38.2896 663.467 47.9305C651.367 57.5715 639.501 66.967 637.097 68.8096C626.137 77.211 624.489 79.7014 626.259 85.1918C627.249 88.2637 629.379 89.605 649.717 99.9661C657.555 103.959 663.963 107.735 663.958 108.357C663.946 109.88 603.383 140.364 602.031 139.528C601.446 139.167 600.967 138.414 600.967 137.854C600.967 135.716 590.739 116.422 586.258 110.105C573.489 92.1083 560.091 82.2431 542.206 77.668L533.599 75.4664L532.284 67.4778C531.561 63.084 529.584 55.4392 527.891 50.4892C516.368 16.8021 493.28 0.726087 456.467 0.758227C441.76 0.771027 432.229 2.70426 421.467 7.85771C399.334 18.4563 386.731 37.3939 381.277 68.2489C379.599 77.7426 379.467 87.0186 379.467 195.489C379.467 290.625 379.725 313.886 380.846 319.966C387.602 356.608 412.841 386.424 443.919 394.477C453.91 397.066 468.942 397.317 478.578 395.057ZM450.766 378.899C433.127 375.271 415.055 360.262 405.72 341.489C399.547 329.077 396.076 314.01 397.862 307.384C399.583 300.998 405.13 292.813 410.467 288.783C419.296 282.116 435.49 276.996 447.783 276.984C455.078 276.977 460.673 275.408 461.956 273.011C463.917 269.345 463.168 264.292 460.333 262.062C454.205 257.242 426.1 261.269 410.569 269.192C406.126 271.459 400.824 275 399.833 276.361C397.218 279.956 396.943 274.632 396.7 215.724C396.563 182.306 396.7 154.262 396.997 153.405C397.401 152.253 398.868 153.363 402.627 157.668C421.904 179.744 448.791 202.622 472.131 216.811C482.302 222.994 504.196 234.048 516.467 239.196C540.946 249.464 574.531 259.365 582.948 258.793C587.361 258.494 587.449 258.549 588.837 262.489C590.797 268.054 591.437 283.408 589.998 290.341C587.054 304.525 574.646 321.683 561.847 329.271C554.518 333.616 531.025 337.716 529.612 336.302C529.039 335.73 517.187 325.785 510.401 319.7C506.288 316.011 500.69 313.208 500.69 313.208C500.69 313.208 497.468 310.769 489.488 310.77C481.984 310.77 470.86 316.316 462.126 320.472C461.571 320.736 461.026 320.994 460.492 321.245C448.269 326.99 449.625 338.455 455.254 340.263C460.725 342.02 467.666 335.893 473.319 332.348C478.48 329.111 484.891 326.882 485.601 326.688C499.019 323.027 516.864 351.923 502.357 363.796C495.125 369.715 483.837 376.584 475.785 378.532C469.092 380.152 457.671 380.319 450.766 378.899ZM562.095 236.026C537.187 228.829 509.295 217.197 488.526 205.344C457.387 187.574 426.029 159.761 402.136 128.721L397.806 123.095L397.636 97.2921C397.477 73.0433 397.61 70.9471 399.838 62.4892C405.873 39.5738 418.577 25.0379 436.947 20.0287C446.029 17.5523 463.949 17.2783 474.237 19.4584C485.663 21.8796 496.862 29.251 503.485 38.7108C508.707 46.1682 513.032 58.4098 514.372 69.5268C515.061 75.2403 512.402 87.0584 508.486 95.6857C500.92 112.352 479.85 120.743 461.61 114.354C456.132 112.435 448.506 106.566 444.82 101.434C440.837 95.8877 436.63 94.2675 431.634 96.3552C427.589 98.0451 425.967 100.535 425.967 105.053C425.967 108.244 428.813 111.885 438.967 121.689C444.526 127.056 457.181 132.759 466.149 133.939C479.427 135.687 493.434 133.008 504.292 126.645C513.478 121.261 522.886 109.73 527.061 98.7392C529.526 92.2483 530.674 91.831 538.967 94.4104C551.261 98.2343 560.36 104.698 569.221 115.904C579.048 128.332 588.854 149.913 590.518 162.776C591.937 173.748 580.696 192.839 569.283 198.841C566.205 200.459 557.024 200.267 551.843 198.476C537.16 193.4 518.611 178.089 499.935 155.631L492.569 146.772L488.396 147.344C481.694 148.263 479.077 149.887 478.389 153.555C477.727 157.084 478.565 160.989 479.985 160.989C480.47 160.989 484.153 164.924 488.167 169.732C521.775 209.984 553.617 226.095 577.435 214.899C585.84 210.948 597.167 199.379 602.119 189.686C605.545 182.981 608.229 170.141 607.523 163.835C606.742 156.864 605.774 157.645 630.675 145.158C663.327 128.783 688.411 115.792 691.217 113.803C693.397 112.257 693.967 111.061 693.967 108.032C693.967 105.825 693.228 103.362 692.217 102.202C690.286 99.9853 663.724 85.9892 661.448 85.9892C659.151 85.9892 650.967 81.6937 650.967 80.4883C650.967 79.882 656.645 74.9091 663.584 69.4375C670.523 63.9659 679.41 56.9137 683.334 53.7658C690.044 48.3825 692.967 46.8844 692.967 48.8295C692.967 49.2918 699.155 58.1873 706.717 68.5973C725.566 94.5434 724.213 92.1574 722.46 96.3517C721.656 98.2771 720.578 100.112 720.064 100.429C719.551 100.747 716.774 105.39 713.893 110.748C684.79 164.881 644.51 207.034 595.99 234.137C583.017 241.384 581.023 241.495 562.095 236.026Z" fill="#FF7F2A"/>
</svg>
