<svg width="34" height="34" viewBox="0 0 34 34" fill="none" xmlns="http://www.w3.org/2000/svg">
<g clip-path="url(#clip0_173_71)">
<path d="M11.3 0H3.62C1.62 0 0 1.62 0 3.62V15.76L11.3 0Z" fill="#088038"/>
<path d="M20.78 15.77C20.56 15.77 20.35 15.65 20.21 15.47L14.24 7.78C13.92 7.35 13.26 7.35 12.94 7.78L7.37 15.66L12.25 15.87C12.47 15.87 12.68 15.99 12.82 16.17L18.42 24.07C18.74 24.5 19.4 24.5 19.72 24.07L25.94 15.72L20.78 15.77Z" fill="#F8C300"/>
<path d="M26.9 14.42L33.16 6.02V3.62C33.16 1.62 31.54 0 29.54 0H15.95L26.9 14.42Z" fill="#088038"/>
<path d="M20.43 33.16H29.54C31.54 33.16 33.16 31.54 33.16 29.54V16.07L20.43 33.16Z" fill="#088038"/>
<path d="M6.19 17.33L0 26.09V29.54C0 31.54 1.62 33.16 3.62 33.16H17.71L6.19 17.33Z" fill="#088038"/>
</g>
<defs>
<clipPath id="clip0_173_71">
<rect width="33.16" height="33.16" fill="white"/>
</clipPath>
</defs>
</svg>
